<svg width="136" height="127" viewBox="0 0 136 127" fill="none" xmlns="http://www.w3.org/2000/svg">
<path d="M97.7745 67.3383C99.9679 69.4048 103.539 69.4181 105.75 67.368C107.961 65.318 107.975 61.9808 105.782 59.9143L72.0808 28.1644C69.9545 26.1611 66.5171 26.0784 64.2833 27.9769L30.3236 56.8388C28.0193 58.7972 27.8499 62.1306 29.9453 64.2842C32.0407 66.4379 35.6073 66.5961 37.9116 64.6378L67.8765 39.1709L97.7745 67.3383Z" fill="black"/>
<path opacity="0.3" d="M97.6163 104.233C99.8098 106.299 103.38 106.312 105.591 104.262C107.803 102.212 107.817 98.8751 105.623 96.8086L71.9227 65.0587C69.7963 63.0554 66.359 62.9727 64.1252 64.8712L30.1654 93.7331C27.8611 95.6915 27.6918 99.025 29.7872 101.179C31.8825 103.332 35.4492 103.49 37.7534 101.532L67.7184 76.0653L97.6163 104.233Z" fill="white"/>
</svg>
