<svg width="183" height="183" viewBox="0 0 183 183" fill="none" xmlns="http://www.w3.org/2000/svg">
<path fill-rule="evenodd" clip-rule="evenodd" d="M174.706 144.016C175.022 144.332 175.563 144.107 175.561 143.661L175.405 99.9276V42.1382C175.405 31.4994 166.781 22.875 156.142 22.875H66.2472C55.6085 22.875 46.9841 31.4994 46.9841 42.1382V68.625H118.997C120.655 68.625 122 69.9695 122 71.6281V119.191H149.881L174.706 144.016Z" fill="white"/>
<path opacity="0.3" fill-rule="evenodd" clip-rule="evenodd" d="M15.1361 137.25V99.125C15.1361 90.7027 21.9638 83.875 30.3861 83.875H91.3861C99.8085 83.875 106.636 90.7027 106.636 99.125V137.25C106.636 145.672 99.8085 152.5 91.3861 152.5H31.2686L16.1821 166.94C15.8638 167.244 15.3355 167.019 15.3355 166.578V139.722C15.2043 138.918 15.1361 138.092 15.1361 137.25ZM45.7501 107.25C45.7501 106.974 45.9742 106.75 46.2506 106.75H90.9995C91.276 106.75 91.5001 106.974 91.5001 107.25V113.874C91.5001 114.151 91.276 114.375 90.9995 114.375H46.2506C45.9742 114.375 45.7501 114.151 45.7501 113.874V107.25ZM69.1256 122C68.8492 122 68.6251 122.224 68.6251 122.5V129.124C68.6251 129.401 68.8492 129.625 69.1256 129.625H90.9996C91.276 129.625 91.5001 129.401 91.5001 129.124V122.5C91.5001 122.224 91.276 122 90.9996 122H69.1256Z" fill="white"/>
</svg>
