<svg width="183" height="183" viewBox="0 0 183 183" fill="none" xmlns="http://www.w3.org/2000/svg">
<path fill-rule="evenodd" clip-rule="evenodd" d="M55.3284 144.335L45.589 156.07C26.5116 140.236 15.25 116.78 15.25 91.5001C15.25 66.2554 26.4802 42.8279 45.5125 26.994L55.2658 38.7173C39.68 51.6839 30.5 70.8344 30.5 91.5001C30.5 112.194 39.7056 131.369 55.3284 144.335ZM127.672 144.335L137.411 156.07C156.489 140.236 167.75 116.78 167.75 91.5001C167.75 66.2554 156.52 42.8279 137.488 26.994L127.734 38.7173C143.32 51.6839 152.5 70.8344 152.5 91.5001C152.5 112.194 143.294 131.369 127.672 144.335ZM108.111 120.932L117.813 132.698C130.028 122.625 137.25 107.645 137.25 91.5001C137.25 75.4082 130.075 60.472 117.929 50.3986L108.194 62.137C116.883 69.3433 122 79.9956 122 91.5001C122 103.042 116.849 113.726 108.111 120.932ZM65.1868 132.698L74.8889 120.932C66.1506 113.726 60.9999 103.042 60.9999 91.5001C60.9999 79.9956 66.1166 69.3433 74.8059 62.137L65.0708 50.3986C52.9243 60.472 45.7499 75.4082 45.7499 91.5001C45.7499 107.645 52.9719 122.625 65.1868 132.698Z" fill="white"/>
<path fill-rule="evenodd" clip-rule="evenodd" d="M91.5 106.75C99.9223 106.75 106.75 99.9223 106.75 91.5C106.75 83.0777 99.9223 76.25 91.5 76.25C83.0777 76.25 76.25 83.0777 76.25 91.5C76.25 99.9223 83.0777 106.75 91.5 106.75Z" fill="#646464"/>
</svg>
