<svg width="186" height="183" viewBox="0 0 186 183" fill="none" xmlns="http://www.w3.org/2000/svg">
<path opacity="0.3" d="M83.1125 15.25C87.3237 15.25 90.7375 18.6638 90.7375 22.875C90.7375 27.0862 87.3237 30.5 83.1125 30.5H45.75C37.3277 30.5 30.5 37.3277 30.5 45.75V137.25C30.5 145.672 37.3277 152.5 45.75 152.5H137.25C145.672 152.5 152.5 145.672 152.5 137.25V122C152.5 117.789 155.914 114.375 160.125 114.375C164.336 114.375 167.75 117.789 167.75 122V137.25C167.75 154.095 154.095 167.75 137.25 167.75H45.75C28.9053 167.75 15.25 154.095 15.25 137.25V45.75C15.25 28.9053 28.9053 15.25 45.75 15.25H83.1125Z" fill="#595959"/>
<path d="M53.4101 105.967C53.4101 100.151 52.1639 77.2 70.2687 58.9913C82.4541 46.7368 100.69 44.6113 122.499 43.642V2.79897C122.499 2.14756 123.272 1.80524 123.755 2.24293L185.7 58.441C186.026 58.7369 186.028 59.2486 185.705 59.5478L123.76 116.915C123.28 117.361 122.499 117.02 122.499 116.365V75.5453C108.652 75.9261 98.789 76.8069 89.8275 79.6579C70.8312 85.7013 60.3062 113.538 58.8641 117.591C58.7558 117.895 58.4747 118.083 58.1516 118.083H54.1262C53.7116 118.083 53.3754 117.748 53.3759 117.333C53.3801 113.836 53.4101 108.836 53.4101 105.967Z" fill="white"/>
</svg>
