<svg width="183" height="183" viewBox="0 0 183 183" fill="none" xmlns="http://www.w3.org/2000/svg">
<path opacity="0.3" fill-rule="evenodd" clip-rule="evenodd" d="M80.0268 57.6496C80.0469 57.3889 80.2644 57.1875 80.5259 57.1875H87.2344C87.4916 57.1875 87.7069 57.3823 87.7325 57.6382L91.4999 95.3125L117.935 110.418C118.091 110.508 118.187 110.673 118.187 110.853V117.532C118.187 117.862 117.874 118.102 117.555 118.015L76.649 106.859C76.4174 106.796 76.2632 106.577 76.2816 106.338L80.0268 57.6496Z" fill="white"/>
<path fill-rule="evenodd" clip-rule="evenodd" d="M43.0514 5.77126C42.787 5.45619 42.2765 5.57678 42.1811 5.97686L31.0168 52.7818C30.9391 53.1078 31.1974 53.4166 31.532 53.3976L79.6808 50.6691C80.0921 50.6458 80.3007 50.1633 80.0359 49.8477L66.709 33.9653C73.3705 31.689 80.4343 30.5001 87.6875 30.5001C123.482 30.5001 152.5 59.5176 152.5 95.3126C152.5 131.108 123.482 160.125 87.6875 160.125C51.8925 160.125 22.875 131.108 22.875 95.3126C22.875 89.3035 23.6887 83.418 25.2754 77.7614L10.5921 73.6427C8.65891 80.5348 7.625 87.803 7.625 95.3126C7.625 139.53 43.4702 175.375 87.6875 175.375C131.905 175.375 167.75 139.53 167.75 95.3126C167.75 51.0953 131.905 15.2501 87.6875 15.2501C76.5653 15.2501 65.9728 17.518 56.3472 21.6166L43.0514 5.77126Z" fill="white"/>
</svg>
