<svg width="153" height="153" viewBox="0 0 153 153" fill="none" xmlns="http://www.w3.org/2000/svg">
<path opacity="0.3" d="M68.085 0C72.31 0 75.735 3.42502 75.735 7.65C75.735 11.875 72.31 15.3 68.085 15.3H30.6C22.15 15.3 15.3 22.15 15.3 30.6V122.4C15.3 130.85 22.15 137.7 30.6 137.7H122.4C130.85 137.7 137.7 130.85 137.7 122.4V107.1C137.7 102.875 141.125 99.45 145.35 99.45C149.575 99.45 153 102.875 153 107.1V122.4C153 139.3 139.3 153 122.4 153H30.6C13.7001 153 0 139.3 0 122.4V30.6C0 13.7001 13.7001 0 30.6 0H68.085Z" fill="#595959"/>
</svg>
