<svg width="99" height="172" viewBox="0 0 99 172" fill="none" xmlns="http://www.w3.org/2000/svg">
<g opacity="0.8">
<path d="M46.284 112.039C34.5082 112.039 24.9621 101.076 24.9621 87.5527C24.9621 74.0294 34.5082 63.0666 46.284 63.0666C58.0597 63.0666 67.6058 74.0294 67.6058 87.5527C67.6058 101.076 58.0597 112.039 46.284 112.039Z" fill="white"/>
<path d="M0.00338905 167.217C2.01912 138.714 22.1639 124.222 46.7174 124.222C71.6165 124.222 92.0734 137.918 93.5973 167.222C93.658 168.39 93.5972 172 89.6906 172C70.4199 172 41.7842 172 3.78334 172C2.47912 172 -0.10641 168.77 0.00338905 167.217Z" fill="#1D3963"/>
</g>
</svg>
