<svg width="183" height="183" viewBox="0 0 183 183" fill="none" xmlns="http://www.w3.org/2000/svg">
<path opacity="0.3" fill-rule="evenodd" clip-rule="evenodd" d="M91.4999 129.625C125.189 129.625 152.5 102.314 152.5 68.625C152.5 34.9356 125.189 7.625 91.4999 7.625C57.8105 7.625 30.4999 34.9356 30.4999 68.625C30.4999 102.314 57.8105 129.625 91.4999 129.625Z" fill="white"/>
<path opacity="0.3" fill-rule="evenodd" clip-rule="evenodd" d="M49.8533 68.625L80.5809 147.639L91.3165 143.464L101.98 147.677L133.211 68.625H49.8533ZM72.1465 83.875H110.789L91.3157 133.167L72.1465 83.875Z" fill="#DADADA"/>
<path opacity="0.3" d="M76.2499 167.75H106.75V180.998C106.75 182.104 105.854 183 104.748 183H78.2519C77.1462 183 76.2499 182.104 76.2499 180.998V167.75Z" fill="#FCFCFC"/>
<path d="M61.0001 124.44C61.0001 123.092 62.0925 122 63.4401 122H119.56C120.908 122 122 123.092 122 124.44V134.81C122 136.158 120.908 137.25 119.56 137.25H63.4401C62.0925 137.25 61.0001 136.158 61.0001 134.81V124.44Z" fill="white"/>
<path d="M61.0001 139.69C61.0001 138.342 62.0925 137.25 63.4401 137.25H119.56C120.908 137.25 122 138.342 122 139.69V150.06C122 151.408 120.908 152.5 119.56 152.5C120.908 152.5 122 153.592 122 154.94V165.31C122 166.658 120.908 167.75 119.56 167.75H63.4401C62.0925 167.75 61.0001 166.658 61.0001 165.31V154.94C61.0001 153.592 62.0925 152.5 63.4401 152.5C62.0925 152.5 61.0001 151.408 61.0001 150.06V139.69Z" fill="white"/>
</svg>
