<svg width="183" height="183" viewBox="0 0 183 183" fill="none" xmlns="http://www.w3.org/2000/svg">
<path opacity="0.3" d="M137.25 15.25H172.372C174.03 15.25 175.375 16.5945 175.375 18.2531V164.747C175.375 166.405 174.03 167.75 172.372 167.75H137.25V15.25Z" fill="white"/>
<path fill-rule="evenodd" clip-rule="evenodd" d="M30.5 16.251C30.5 15.6982 30.9482 15.25 31.501 15.25H149.497C151.155 15.25 152.5 16.5945 152.5 18.2531V164.747C152.5 166.405 151.155 167.75 149.497 167.75H31.501C30.9482 167.75 30.5 167.302 30.5 166.749V16.251ZM91.5 83.875C83.0777 83.875 76.25 77.0473 76.25 68.625C76.25 60.2027 83.0777 53.375 91.5 53.375C99.9223 53.375 106.75 60.2027 106.75 68.625C106.75 77.0473 99.9223 83.875 91.5 83.875ZM91.4294 91.5C71.4289 91.5 55.0197 103.064 53.3778 125.809C53.2883 127.048 55.3944 129.625 56.4568 129.625H126.434C129.616 129.625 129.666 126.744 129.616 125.812C128.375 102.428 111.711 91.5 91.4294 91.5Z" fill="white"/>
</svg>
