<svg width="183" height="183" viewBox="0 0 183 183" fill="none" xmlns="http://www.w3.org/2000/svg">
<path fill-rule="evenodd" clip-rule="evenodd" d="M22.875 46.5008C22.875 46.0861 23.2111 45.75 23.6258 45.75H159.374C159.789 45.75 160.125 46.0861 160.125 46.5008V67.8743C160.125 68.2889 159.789 68.625 159.374 68.625H23.6258C23.2111 68.625 22.875 68.2889 22.875 67.8743V46.5008ZM30.5001 84.6258C30.5001 84.2111 30.8362 83.875 31.2508 83.875H83.1243C83.5389 83.875 83.8751 84.2111 83.8751 84.6258V151.749C83.8751 152.164 83.5389 152.5 83.1243 152.5H31.2508C30.8362 152.5 30.5001 152.164 30.5001 151.749V84.6258ZM99.8758 83.875C99.4612 83.875 99.1251 84.2111 99.1251 84.6258V151.749C99.1251 152.164 99.4612 152.5 99.8758 152.5H151.749C152.164 152.5 152.5 152.164 152.5 151.749V84.6258C152.5 84.2111 152.164 83.875 151.749 83.875H99.8758Z" fill="white"/>
<path opacity="0.3" d="M110.145 16.5304C113.649 14.1945 118.383 15.1413 120.719 18.6452C123.055 22.1492 122.108 26.8833 118.604 29.2192L91.4997 47.2889L64.3951 29.2192C60.8912 26.8833 59.9444 22.1492 62.2803 18.6452C64.6163 15.1413 69.3504 14.1945 72.8543 16.5304L91.4997 28.9607L110.145 16.5304Z" fill="#646464"/>
</svg>
