<svg width="183" height="183" viewBox="0 0 183 183" fill="none" xmlns="http://www.w3.org/2000/svg">
<path fill-rule="evenodd" clip-rule="evenodd" d="M145.064 50.0453C145.165 49.4351 144.695 48.8797 144.076 48.8797H16.1302C15.4651 48.8797 14.985 49.5162 15.1677 50.1557L32.6258 111.259C32.7305 111.626 33.0343 111.901 33.4093 111.969L130.763 129.67C131.313 129.77 131.838 129.401 131.929 128.85L145.064 50.0453Z" fill="white"/>
<path opacity="0.3" fill-rule="evenodd" clip-rule="evenodd" d="M61 148.688C61 155.004 55.8793 160.125 49.5625 160.125C43.2457 160.125 38.125 155.004 38.125 148.688C38.125 142.371 43.2457 137.25 49.5625 137.25C55.8793 137.25 61 142.371 61 148.688ZM129.625 148.688C129.625 155.004 124.504 160.125 118.188 160.125C111.871 160.125 106.75 155.004 106.75 148.688C106.75 142.371 111.871 137.25 118.188 137.25C124.504 137.25 129.625 142.371 129.625 148.688Z" fill="white"/>
</svg>
