<svg width="488" height="488" viewBox="0 0 488 488" fill="none" xmlns="http://www.w3.org/2000/svg">
<rect x="1" y="1" width="486" height="486" stroke="#4B4B4B" stroke-width="2"/>
<rect width="488" height="488" fill="#222222"/>
<path d="M198.931 280.094V265.278L201.233 271.235L185.567 245.058H196.028L207.339 264.027H201.283L212.645 245.058H222.255L206.639 271.235L208.841 265.278V280.094H198.931ZM240.928 280.794C238.125 280.794 235.539 280.344 233.17 279.443C230.801 278.542 228.732 277.274 226.964 275.639C225.229 273.971 223.877 272.035 222.91 269.833C221.942 267.631 221.458 265.212 221.458 262.576C221.458 259.94 221.942 257.52 222.91 255.318C223.877 253.116 225.229 251.197 226.964 249.562C228.732 247.894 230.801 246.609 233.17 245.708C235.539 244.807 238.125 244.357 240.928 244.357C243.764 244.357 246.35 244.807 248.686 245.708C251.055 246.609 253.107 247.894 254.842 249.562C256.577 251.197 257.929 253.116 258.897 255.318C259.898 257.52 260.398 259.94 260.398 262.576C260.398 265.212 259.898 267.648 258.897 269.883C257.929 272.085 256.577 274.004 254.842 275.639C253.107 277.274 251.055 278.542 248.686 279.443C246.35 280.344 243.764 280.794 240.928 280.794ZM240.928 272.586C242.263 272.586 243.497 272.352 244.632 271.885C245.8 271.418 246.801 270.751 247.635 269.883C248.503 268.982 249.17 267.914 249.637 266.68C250.138 265.445 250.388 264.077 250.388 262.576C250.388 261.041 250.138 259.673 249.637 258.471C249.17 257.237 248.503 256.186 247.635 255.318C246.801 254.417 245.8 253.733 244.632 253.266C243.497 252.799 242.263 252.565 240.928 252.565C239.593 252.565 238.342 252.799 237.174 253.266C236.04 253.733 235.039 254.417 234.171 255.318C233.337 256.186 232.67 257.237 232.169 258.471C231.702 259.673 231.468 261.041 231.468 262.576C231.468 264.077 231.702 265.445 232.169 266.68C232.67 267.914 233.337 268.982 234.171 269.883C235.039 270.751 236.04 271.418 237.174 271.885C238.342 272.352 239.593 272.586 240.928 272.586ZM281.755 280.794C276.583 280.794 272.546 279.376 269.643 276.54C266.74 273.704 265.288 269.683 265.288 264.478V245.058H275.198V264.177C275.198 267.18 275.782 269.333 276.95 270.634C278.151 271.935 279.786 272.586 281.855 272.586C283.924 272.586 285.542 271.935 286.71 270.634C287.878 269.333 288.462 267.18 288.462 264.177V245.058H298.222V264.478C298.222 269.683 296.77 273.704 293.868 276.54C290.965 279.376 286.927 280.794 281.755 280.794Z" fill="white"/>
</svg>
