<svg width="488" height="488" viewBox="0 0 488 488" fill="none" xmlns="http://www.w3.org/2000/svg">
<rect x="1" y="1" width="486" height="486" fill="#2B2B2B"/>
<rect x="1" y="1" width="486" height="486" stroke="#4B4B4B" stroke-width="2"/>
<path d="M134.833 280.794C132.064 280.794 129.494 280.361 127.125 279.493C124.79 278.592 122.754 277.324 121.019 275.689C119.317 274.054 117.983 272.135 117.015 269.933C116.047 267.698 115.564 265.245 115.564 262.576C115.564 259.906 116.047 257.47 117.015 255.268C117.983 253.033 119.317 251.097 121.019 249.462C122.754 247.827 124.79 246.576 127.125 245.708C129.494 244.807 132.064 244.357 134.833 244.357C138.07 244.357 140.956 244.924 143.492 246.059C146.061 247.193 148.197 248.828 149.899 250.964L143.592 256.67C142.458 255.335 141.206 254.317 139.838 253.616C138.504 252.916 137.002 252.565 135.334 252.565C133.899 252.565 132.581 252.799 131.38 253.266C130.179 253.733 129.144 254.417 128.277 255.318C127.442 256.186 126.775 257.237 126.275 258.471C125.807 259.706 125.574 261.074 125.574 262.576C125.574 264.077 125.807 265.445 126.275 266.68C126.775 267.914 127.442 268.982 128.277 269.883C129.144 270.751 130.179 271.418 131.38 271.885C132.581 272.352 133.899 272.586 135.334 272.586C137.002 272.586 138.504 272.236 139.838 271.535C141.206 270.834 142.458 269.816 143.592 268.482L149.899 274.188C148.197 276.29 146.061 277.925 143.492 279.093C140.956 280.227 138.07 280.794 134.833 280.794ZM164.692 280.544C162.49 280.544 160.504 280.11 158.736 279.243C157.001 278.375 155.633 277.024 154.632 275.189C153.664 273.32 153.18 270.968 153.18 268.131V252.966H162.69V266.58C162.69 268.682 163.074 270.183 163.841 271.084C164.642 271.985 165.76 272.436 167.195 272.436C168.129 272.436 168.98 272.219 169.747 271.785C170.515 271.351 171.132 270.667 171.599 269.733C172.066 268.765 172.3 267.531 172.3 266.029V252.966H181.81V280.094H172.75V272.436L174.502 274.588C173.568 276.59 172.216 278.092 170.448 279.093C168.679 280.06 166.761 280.544 164.692 280.544ZM197.795 280.544C195.493 280.544 193.24 280.277 191.038 279.743C188.869 279.209 187.117 278.542 185.783 277.741L188.636 271.235C189.904 272.002 191.388 272.619 193.09 273.086C194.792 273.52 196.46 273.737 198.095 273.737C199.697 273.737 200.798 273.57 201.399 273.237C202.033 272.903 202.35 272.452 202.35 271.885C202.35 271.351 202.049 270.968 201.449 270.734C200.882 270.467 200.114 270.267 199.146 270.133C198.212 270 197.178 269.85 196.043 269.683C194.909 269.516 193.758 269.299 192.59 269.032C191.455 268.732 190.404 268.298 189.436 267.731C188.502 267.13 187.751 266.33 187.184 265.328C186.617 264.327 186.333 263.06 186.333 261.525C186.333 259.789 186.834 258.255 187.835 256.92C188.869 255.552 190.371 254.484 192.339 253.717C194.308 252.916 196.711 252.515 199.547 252.515C201.449 252.515 203.367 252.716 205.303 253.116C207.271 253.483 208.923 254.05 210.258 254.818L207.405 261.274C206.07 260.507 204.736 259.99 203.401 259.723C202.066 259.422 200.798 259.272 199.597 259.272C197.995 259.272 196.861 259.456 196.193 259.823C195.559 260.19 195.242 260.64 195.242 261.174C195.242 261.708 195.526 262.125 196.093 262.426C196.661 262.692 197.411 262.909 198.346 263.076C199.313 263.21 200.364 263.36 201.499 263.527C202.633 263.66 203.768 263.877 204.902 264.177C206.07 264.478 207.121 264.928 208.056 265.529C209.023 266.096 209.791 266.88 210.358 267.881C210.925 268.849 211.209 270.1 211.209 271.635C211.209 273.303 210.692 274.805 209.657 276.14C208.656 277.474 207.155 278.542 205.153 279.343C203.184 280.144 200.731 280.544 197.795 280.544ZM227.419 280.544C223.949 280.544 221.246 279.693 219.311 277.991C217.376 276.256 216.408 273.654 216.408 270.183V246.91H225.918V270.083C225.918 271.051 226.185 271.818 226.718 272.386C227.252 272.92 227.936 273.187 228.771 273.187C229.905 273.187 230.873 272.903 231.674 272.336L234.026 278.992C233.225 279.526 232.241 279.91 231.073 280.144C229.905 280.411 228.687 280.544 227.419 280.544ZM212.454 261.074V253.967H232.124V261.074H212.454ZM250.525 280.544C247.555 280.544 244.919 279.943 242.617 278.742C240.314 277.541 238.496 275.889 237.161 273.787C235.86 271.652 235.209 269.216 235.209 266.48C235.209 263.744 235.86 261.324 237.161 259.222C238.496 257.12 240.314 255.485 242.617 254.317C244.919 253.116 247.555 252.515 250.525 252.515C253.495 252.515 256.131 253.116 258.433 254.317C260.769 255.485 262.587 257.12 263.889 259.222C265.19 261.324 265.841 263.744 265.841 266.48C265.841 269.216 265.19 271.652 263.889 273.787C262.587 275.889 260.769 277.541 258.433 278.742C256.131 279.943 253.495 280.544 250.525 280.544ZM250.525 272.986C251.626 272.986 252.594 272.736 253.428 272.236C254.295 271.735 254.979 271.001 255.48 270.033C255.98 269.032 256.231 267.848 256.231 266.48C256.231 265.112 255.98 263.96 255.48 263.026C254.979 262.058 254.295 261.324 253.428 260.824C252.594 260.323 251.626 260.073 250.525 260.073C249.457 260.073 248.489 260.323 247.622 260.824C246.788 261.324 246.104 262.058 245.57 263.026C245.069 263.96 244.819 265.112 244.819 266.48C244.819 267.848 245.069 269.032 245.57 270.033C246.104 271.001 246.788 271.735 247.622 272.236C248.489 272.736 249.457 272.986 250.525 272.986ZM305.582 252.515C307.684 252.515 309.553 252.949 311.188 253.817C312.856 254.651 314.158 255.952 315.092 257.721C316.059 259.489 316.543 261.775 316.543 264.578V280.094H307.034V266.129C307.034 264.194 306.667 262.793 305.932 261.925C305.198 261.024 304.197 260.574 302.929 260.574C302.028 260.574 301.211 260.791 300.477 261.224C299.743 261.658 299.175 262.325 298.775 263.226C298.375 264.094 298.174 265.228 298.174 266.63V280.094H288.665V266.129C288.665 264.194 288.298 262.793 287.564 261.925C286.863 261.024 285.862 260.574 284.561 260.574C283.626 260.574 282.792 260.791 282.058 261.224C281.357 261.658 280.79 262.325 280.356 263.226C279.956 264.094 279.756 265.228 279.756 266.63V280.094H270.246V252.966H279.305V260.524L277.503 258.371C278.504 256.436 279.872 254.985 281.607 254.017C283.343 253.016 285.278 252.515 287.413 252.515C289.849 252.515 291.985 253.149 293.82 254.417C295.689 255.652 296.94 257.587 297.574 260.223L294.471 259.573C295.438 257.37 296.89 255.652 298.825 254.417C300.794 253.149 303.046 252.515 305.582 252.515ZM337.102 280.544C333.899 280.544 331.096 279.943 328.694 278.742C326.325 277.508 324.473 275.839 323.138 273.737C321.837 271.602 321.186 269.182 321.186 266.48C321.186 263.777 321.82 261.374 323.088 259.272C324.389 257.137 326.174 255.485 328.443 254.317C330.712 253.116 333.265 252.515 336.101 252.515C338.771 252.515 341.206 253.066 343.409 254.167C345.611 255.235 347.363 256.82 348.664 258.922C349.965 261.024 350.616 263.577 350.616 266.58C350.616 266.913 350.599 267.297 350.566 267.731C350.533 268.165 350.499 268.565 350.466 268.932H328.994V263.927H345.411L341.807 265.328C341.84 264.094 341.607 263.026 341.106 262.125C340.639 261.224 339.972 260.524 339.104 260.023C338.27 259.523 337.286 259.272 336.151 259.272C335.017 259.272 334.016 259.523 333.148 260.023C332.314 260.524 331.663 261.241 331.196 262.175C330.729 263.076 330.495 264.144 330.495 265.379V266.83C330.495 268.165 330.762 269.316 331.296 270.284C331.864 271.251 332.664 272.002 333.699 272.536C334.733 273.036 335.968 273.287 337.403 273.287C338.737 273.287 339.872 273.103 340.806 272.736C341.774 272.336 342.725 271.735 343.659 270.934L348.664 276.14C347.363 277.574 345.761 278.676 343.859 279.443C341.957 280.177 339.705 280.544 337.102 280.544ZM355.001 280.094V252.966H364.06V260.874L362.709 258.622C363.509 256.586 364.811 255.068 366.613 254.067C368.414 253.033 370.6 252.515 373.169 252.515V261.074C372.735 261.007 372.352 260.974 372.018 260.974C371.718 260.941 371.384 260.924 371.017 260.924C369.082 260.924 367.513 261.458 366.312 262.526C365.111 263.56 364.51 265.262 364.51 267.631V280.094H355.001Z" fill="white"/>
</svg>
