<svg width="488" height="488" viewBox="0 0 488 488" fill="none" xmlns="http://www.w3.org/2000/svg">
<rect x="1" y="1" width="486" height="486" fill="#2B2B2B"/>
<rect x="1" y="1" width="486" height="486" stroke="#4B4B4B" stroke-width="2"/>
<path d="M138.597 280.794C135.827 280.794 133.258 280.361 130.889 279.493C128.553 278.592 126.518 277.324 124.783 275.689C123.081 274.054 121.746 272.135 120.779 269.933C119.811 267.698 119.327 265.245 119.327 262.576C119.327 259.906 119.811 257.47 120.779 255.268C121.746 253.033 123.081 251.097 124.783 249.462C126.518 247.827 128.553 246.576 130.889 245.708C133.258 244.807 135.827 244.357 138.597 244.357C141.834 244.357 144.72 244.924 147.256 246.059C149.825 247.193 151.961 248.828 153.662 250.964L147.356 256.67C146.221 255.335 144.97 254.317 143.602 253.616C142.267 252.916 140.766 252.565 139.097 252.565C137.663 252.565 136.345 252.799 135.143 253.266C133.942 253.733 132.908 254.417 132.04 255.318C131.206 256.186 130.539 257.237 130.038 258.471C129.571 259.706 129.337 261.074 129.337 262.576C129.337 264.077 129.571 265.445 130.038 266.68C130.539 267.914 131.206 268.982 132.04 269.883C132.908 270.751 133.942 271.418 135.143 271.885C136.345 272.352 137.663 272.586 139.097 272.586C140.766 272.586 142.267 272.236 143.602 271.535C144.97 270.834 146.221 269.816 147.356 268.482L153.662 274.188C151.961 276.29 149.825 277.925 147.256 279.093C144.72 280.227 141.834 280.794 138.597 280.794ZM170.365 280.544C167.395 280.544 164.759 279.943 162.457 278.742C160.154 277.541 158.336 275.889 157.001 273.787C155.7 271.652 155.049 269.216 155.049 266.48C155.049 263.744 155.7 261.324 157.001 259.222C158.336 257.12 160.154 255.485 162.457 254.317C164.759 253.116 167.395 252.515 170.365 252.515C173.334 252.515 175.97 253.116 178.273 254.317C180.608 255.485 182.427 257.12 183.728 259.222C185.03 261.324 185.68 263.744 185.68 266.48C185.68 269.216 185.03 271.652 183.728 273.787C182.427 275.889 180.608 277.541 178.273 278.742C175.97 279.943 173.334 280.544 170.365 280.544ZM170.365 272.986C171.466 272.986 172.433 272.736 173.268 272.236C174.135 271.735 174.819 271.001 175.32 270.033C175.82 269.032 176.07 267.848 176.07 266.48C176.07 265.112 175.82 263.96 175.32 263.026C174.819 262.058 174.135 261.324 173.268 260.824C172.433 260.323 171.466 260.073 170.365 260.073C169.297 260.073 168.329 260.323 167.462 260.824C166.627 261.324 165.943 262.058 165.41 263.026C164.909 263.96 164.659 265.112 164.659 266.48C164.659 267.848 164.909 269.032 165.41 270.033C165.943 271.001 166.627 271.735 167.462 272.236C168.329 272.736 169.297 272.986 170.365 272.986ZM225.422 252.515C227.524 252.515 229.393 252.949 231.028 253.817C232.696 254.651 233.997 255.952 234.932 257.721C235.899 259.489 236.383 261.775 236.383 264.578V280.094H226.873V266.129C226.873 264.194 226.506 262.793 225.772 261.925C225.038 261.024 224.037 260.574 222.769 260.574C221.868 260.574 221.051 260.791 220.317 261.224C219.582 261.658 219.015 262.325 218.615 263.226C218.214 264.094 218.014 265.228 218.014 266.63V280.094H208.504V266.129C208.504 264.194 208.137 262.793 207.403 261.925C206.703 261.024 205.702 260.574 204.4 260.574C203.466 260.574 202.632 260.791 201.898 261.224C201.197 261.658 200.63 262.325 200.196 263.226C199.796 264.094 199.595 265.228 199.595 266.63V280.094H190.086V252.966H199.145V260.524L197.343 258.371C198.344 256.436 199.712 254.985 201.447 254.017C203.182 253.016 205.118 252.515 207.253 252.515C209.689 252.515 211.825 253.149 213.66 254.417C215.528 255.652 216.78 257.587 217.414 260.223L214.31 259.573C215.278 257.37 216.73 255.652 218.665 254.417C220.634 253.149 222.886 252.515 225.422 252.515ZM259.453 280.544C257.15 280.544 255.182 280.044 253.547 279.043C251.912 278.008 250.66 276.473 249.793 274.438C248.959 272.369 248.542 269.733 248.542 266.53C248.542 263.293 248.942 260.657 249.743 258.622C250.544 256.553 251.745 255.018 253.347 254.017C254.982 253.016 257.017 252.515 259.453 252.515C261.922 252.515 264.158 253.099 266.16 254.267C268.195 255.402 269.797 257.02 270.965 259.122C272.166 261.191 272.766 263.66 272.766 266.53C272.766 269.399 272.166 271.885 270.965 273.987C269.797 276.09 268.195 277.708 266.16 278.842C264.158 279.977 261.922 280.544 259.453 280.544ZM242.385 289.804V252.966H251.445V257.571L251.395 266.53L251.895 275.539V289.804H242.385ZM257.451 272.986C258.518 272.986 259.469 272.736 260.304 272.236C261.171 271.735 261.855 271.001 262.356 270.033C262.89 269.066 263.157 267.898 263.157 266.53C263.157 265.162 262.89 263.994 262.356 263.026C261.855 262.058 261.171 261.324 260.304 260.824C259.469 260.323 258.518 260.073 257.451 260.073C256.383 260.073 255.415 260.323 254.548 260.824C253.714 261.324 253.03 262.058 252.496 263.026C251.995 263.994 251.745 265.162 251.745 266.53C251.745 267.898 251.995 269.066 252.496 270.033C253.03 271.001 253.714 271.735 254.548 272.236C255.415 272.736 256.383 272.986 257.451 272.986ZM293.167 280.094V275.038L292.516 273.787V264.478C292.516 262.976 292.049 261.825 291.115 261.024C290.214 260.19 288.762 259.773 286.76 259.773C285.459 259.773 284.141 259.99 282.806 260.423C281.472 260.824 280.337 261.391 279.403 262.125L276.2 255.669C277.735 254.668 279.57 253.9 281.705 253.366C283.874 252.799 286.026 252.515 288.162 252.515C292.566 252.515 295.97 253.533 298.372 255.568C300.808 257.571 302.026 260.724 302.026 265.028V280.094H293.167ZM285.159 280.544C282.99 280.544 281.155 280.177 279.653 279.443C278.152 278.709 277 277.708 276.2 276.44C275.432 275.172 275.048 273.754 275.048 272.186C275.048 270.517 275.466 269.082 276.3 267.881C277.167 266.647 278.485 265.712 280.254 265.078C282.022 264.411 284.308 264.077 287.111 264.077H293.517V269.032H288.412C286.877 269.032 285.793 269.283 285.159 269.783C284.558 270.284 284.258 270.951 284.258 271.785C284.258 272.619 284.575 273.287 285.209 273.787C285.843 274.288 286.71 274.538 287.812 274.538C288.846 274.538 289.78 274.288 290.614 273.787C291.482 273.253 292.116 272.452 292.516 271.385L293.818 274.888C293.317 276.757 292.333 278.175 290.865 279.143C289.43 280.077 287.528 280.544 285.159 280.544ZM325.697 252.515C327.799 252.515 329.701 252.949 331.403 253.817C333.104 254.651 334.439 255.952 335.407 257.721C336.408 259.489 336.908 261.775 336.908 264.578V280.094H327.399V266.129C327.399 264.194 326.998 262.793 326.197 261.925C325.43 261.024 324.345 260.574 322.944 260.574C321.943 260.574 321.025 260.807 320.191 261.274C319.357 261.708 318.706 262.392 318.239 263.326C317.772 264.261 317.538 265.479 317.538 266.98V280.094H308.029V252.966H317.088V260.674L315.336 258.421C316.371 256.453 317.789 254.985 319.591 254.017C321.392 253.016 323.428 252.515 325.697 252.515ZM347.045 290.254C345.61 290.254 344.159 290.02 342.69 289.553C341.256 289.12 340.088 288.536 339.187 287.802L342.49 281.145C343.057 281.645 343.708 282.029 344.442 282.296C345.21 282.596 345.96 282.746 346.694 282.746C347.729 282.746 348.546 282.513 349.147 282.046C349.748 281.578 350.265 280.844 350.699 279.843L351.95 276.69L352.701 275.739L361.91 252.966H370.969L359.257 281.195C358.323 283.53 357.239 285.349 356.004 286.65C354.803 287.985 353.451 288.919 351.95 289.453C350.482 289.987 348.847 290.254 347.045 290.254ZM350.749 281.245L338.786 252.966H348.546L357.355 274.888L350.749 281.245Z" fill="white"/>
</svg>
