<svg width="488" height="488" viewBox="0 0 488 488" fill="none" xmlns="http://www.w3.org/2000/svg">
<rect x="1" y="1" width="486" height="486" fill="#2B2B2B"/>
<rect x="1" y="1" width="486" height="486" stroke="#4B4B4B" stroke-width="2"/>
<path d="M153.046 280.094V245.058H161.205L175.72 268.882H171.415L185.53 245.058H193.688L193.788 280.094H184.679L184.579 258.922H186.13L175.57 276.64H171.165L160.304 258.922H162.206V280.094H153.046ZM216.917 280.094V275.038L216.266 273.787V264.478C216.266 262.976 215.799 261.825 214.865 261.024C213.964 260.19 212.512 259.773 210.51 259.773C209.209 259.773 207.891 259.99 206.556 260.423C205.222 260.824 204.087 261.391 203.153 262.125L199.95 255.669C201.485 254.668 203.32 253.9 205.455 253.366C207.624 252.799 209.776 252.515 211.912 252.515C216.316 252.515 219.72 253.533 222.122 255.568C224.558 257.571 225.776 260.724 225.776 265.028V280.094H216.917ZM208.909 280.544C206.74 280.544 204.905 280.177 203.403 279.443C201.902 278.709 200.75 277.708 199.95 276.44C199.182 275.172 198.798 273.754 198.798 272.186C198.798 270.517 199.216 269.082 200.05 267.881C200.917 266.647 202.235 265.712 204.004 265.078C205.772 264.411 208.058 264.077 210.861 264.077H217.267V269.032H212.162C210.627 269.032 209.543 269.283 208.909 269.783C208.308 270.284 208.008 270.951 208.008 271.785C208.008 272.619 208.325 273.287 208.959 273.787C209.593 274.288 210.46 274.538 211.562 274.538C212.596 274.538 213.53 274.288 214.364 273.787C215.232 273.253 215.866 272.452 216.266 271.385L217.568 274.888C217.067 276.757 216.083 278.175 214.615 279.143C213.18 280.077 211.278 280.544 208.909 280.544ZM231.779 280.094V252.966H240.838V260.874L239.487 258.622C240.287 256.586 241.589 255.068 243.391 254.067C245.192 253.033 247.378 252.515 249.947 252.515V261.074C249.514 261.007 249.13 260.974 248.796 260.974C248.496 260.941 248.162 260.924 247.795 260.924C245.86 260.924 244.292 261.458 243.09 262.526C241.889 263.56 241.288 265.262 241.288 267.631V280.094H231.779ZM261.78 275.088L262.03 263.727L273.091 252.966H284.353L272.09 265.629L267.235 269.533L261.78 275.088ZM253.872 280.094V242.956H263.381V280.094H253.872ZM273.792 280.094L265.484 269.683L271.39 262.375L285.304 280.094H273.792ZM301.226 280.544C298.022 280.544 295.219 279.943 292.817 278.742C290.448 277.508 288.596 275.839 287.261 273.737C285.96 271.602 285.309 269.182 285.309 266.48C285.309 263.777 285.943 261.374 287.211 259.272C288.513 257.137 290.298 255.485 292.567 254.317C294.836 253.116 297.388 252.515 300.225 252.515C302.894 252.515 305.33 253.066 307.532 254.167C309.734 255.235 311.486 256.82 312.787 258.922C314.089 261.024 314.739 263.577 314.739 266.58C314.739 266.913 314.723 267.297 314.689 267.731C314.656 268.165 314.623 268.565 314.589 268.932H293.117V263.927H309.534L305.93 265.328C305.964 264.094 305.73 263.026 305.23 262.125C304.763 261.224 304.095 260.524 303.228 260.023C302.394 259.523 301.409 259.272 300.275 259.272C299.14 259.272 298.139 259.523 297.272 260.023C296.437 260.524 295.787 261.241 295.32 262.175C294.852 263.076 294.619 264.144 294.619 265.379V266.83C294.619 268.165 294.886 269.316 295.42 270.284C295.987 271.251 296.788 272.002 297.822 272.536C298.857 273.036 300.091 273.287 301.526 273.287C302.861 273.287 303.995 273.103 304.929 272.736C305.897 272.336 306.848 271.735 307.782 270.934L312.787 276.14C311.486 277.574 309.885 278.676 307.983 279.443C306.081 280.177 303.828 280.544 301.226 280.544ZM331.236 280.544C327.766 280.544 325.063 279.693 323.128 277.991C321.193 276.256 320.225 273.654 320.225 270.183V246.91H329.735V270.083C329.735 271.051 330.002 271.818 330.536 272.386C331.07 272.92 331.754 273.187 332.588 273.187C333.722 273.187 334.69 272.903 335.491 272.336L337.843 278.992C337.042 279.526 336.058 279.91 334.89 280.144C333.722 280.411 332.504 280.544 331.236 280.544ZM316.271 261.074V253.967H335.941V261.074H316.271Z" fill="white"/>
</svg>
