<svg width="488" height="488" viewBox="0 0 488 488" fill="none" xmlns="http://www.w3.org/2000/svg">
<rect x="1" y="1" width="486" height="486" stroke="#4B4B4B" stroke-width="2"/>
<path d="M221.575 403.826C221.575 403.162 221.47 402.575 221.262 402.067C221.066 401.545 220.714 401.076 220.206 400.659C219.711 400.242 219.02 399.844 218.134 399.466C217.26 399.088 216.152 398.704 214.81 398.313C213.402 397.896 212.131 397.433 210.997 396.925C209.863 396.403 208.892 395.81 208.084 395.146C207.276 394.481 206.657 393.718 206.227 392.858C205.797 391.998 205.582 391.014 205.582 389.906C205.582 388.798 205.81 387.775 206.266 386.836C206.722 385.898 207.374 385.083 208.221 384.392C209.081 383.689 210.105 383.141 211.291 382.75C212.477 382.359 213.8 382.164 215.26 382.164C217.397 382.164 219.209 382.574 220.695 383.395C222.194 384.203 223.334 385.266 224.116 386.582C224.898 387.886 225.289 389.28 225.289 390.766H221.536C221.536 389.697 221.307 388.752 220.851 387.931C220.395 387.097 219.704 386.445 218.779 385.976C217.853 385.494 216.68 385.253 215.26 385.253C213.917 385.253 212.809 385.455 211.936 385.859C211.063 386.263 210.411 386.81 209.981 387.501C209.564 388.192 209.355 388.98 209.355 389.867C209.355 390.466 209.479 391.014 209.727 391.509C209.987 391.991 210.385 392.441 210.919 392.858C211.467 393.275 212.157 393.66 212.992 394.012C213.839 394.364 214.849 394.702 216.022 395.028C217.638 395.484 219.033 395.993 220.206 396.553C221.379 397.114 222.344 397.746 223.1 398.45C223.869 399.141 224.436 399.929 224.801 400.815C225.179 401.689 225.368 402.679 225.368 403.787C225.368 404.947 225.133 405.997 224.664 406.935C224.194 407.873 223.523 408.675 222.65 409.34C221.777 410.005 220.727 410.519 219.502 410.884C218.29 411.236 216.934 411.412 215.436 411.412C214.119 411.412 212.822 411.23 211.545 410.865C210.28 410.5 209.127 409.952 208.084 409.223C207.055 408.493 206.227 407.593 205.601 406.524C204.989 405.443 204.682 404.191 204.682 402.771H208.436C208.436 403.748 208.625 404.589 209.003 405.293C209.381 405.984 209.896 406.557 210.548 407.013C211.212 407.469 211.962 407.808 212.796 408.03C213.643 408.238 214.523 408.343 215.436 408.343C216.752 408.343 217.866 408.16 218.779 407.795C219.691 407.43 220.382 406.909 220.851 406.231C221.333 405.553 221.575 404.752 221.575 403.826ZM238.486 389.867V392.643H227.049V389.867H238.486ZM230.92 384.725H234.537V405.781C234.537 406.498 234.648 407.039 234.869 407.404C235.091 407.769 235.378 408.01 235.73 408.128C236.082 408.245 236.46 408.304 236.864 408.304C237.164 408.304 237.476 408.278 237.802 408.225C238.141 408.16 238.395 408.108 238.565 408.069L238.584 411.021C238.297 411.112 237.919 411.197 237.45 411.275C236.994 411.367 236.44 411.412 235.788 411.412C234.902 411.412 234.087 411.236 233.344 410.884C232.602 410.532 232.008 409.946 231.565 409.125C231.135 408.291 230.92 407.17 230.92 405.762V384.725ZM241.38 400.679V400.229C241.38 398.704 241.602 397.29 242.045 395.986C242.488 394.67 243.127 393.529 243.961 392.565C244.795 391.587 245.805 390.831 246.991 390.297C248.177 389.749 249.507 389.476 250.98 389.476C252.466 389.476 253.802 389.749 254.988 390.297C256.187 390.831 257.204 391.587 258.038 392.565C258.885 393.529 259.53 394.67 259.973 395.986C260.416 397.29 260.638 398.704 260.638 400.229V400.679C260.638 402.204 260.416 403.618 259.973 404.921C259.53 406.225 258.885 407.365 258.038 408.343C257.204 409.307 256.193 410.063 255.007 410.611C253.834 411.145 252.505 411.412 251.019 411.412C249.533 411.412 248.197 411.145 247.011 410.611C245.825 410.063 244.808 409.307 243.961 408.343C243.127 407.365 242.488 406.225 242.045 404.921C241.602 403.618 241.38 402.204 241.38 400.679ZM244.997 400.229V400.679C244.997 401.734 245.121 402.731 245.369 403.67C245.616 404.595 245.988 405.417 246.483 406.133C246.991 406.85 247.623 407.417 248.379 407.834C249.135 408.238 250.015 408.44 251.019 408.44C252.009 408.44 252.876 408.238 253.619 407.834C254.375 407.417 255.001 406.85 255.496 406.133C255.991 405.417 256.363 404.595 256.611 403.67C256.871 402.731 257.002 401.734 257.002 400.679V400.229C257.002 399.186 256.871 398.202 256.611 397.277C256.363 396.338 255.985 395.511 255.477 394.794C254.981 394.064 254.356 393.49 253.6 393.073C252.857 392.656 251.983 392.448 250.98 392.448C249.989 392.448 249.116 392.656 248.36 393.073C247.617 393.49 246.991 394.064 246.483 394.794C245.988 395.511 245.616 396.338 245.369 397.277C245.121 398.202 244.997 399.186 244.997 400.229ZM268.791 393.933V419.155H265.154V389.867H268.478L268.791 393.933ZM283.044 400.268V400.679C283.044 402.217 282.861 403.644 282.496 404.96C282.131 406.264 281.597 407.398 280.893 408.362C280.202 409.327 279.349 410.076 278.332 410.611C277.315 411.145 276.149 411.412 274.832 411.412C273.49 411.412 272.304 411.191 271.274 410.748C270.244 410.304 269.371 409.659 268.654 408.812C267.937 407.965 267.364 406.948 266.934 405.762C266.516 404.576 266.23 403.24 266.073 401.754V399.564C266.23 398 266.523 396.599 266.953 395.361C267.383 394.122 267.95 393.067 268.654 392.193C269.371 391.307 270.238 390.636 271.254 390.18C272.271 389.71 273.444 389.476 274.774 389.476C276.103 389.476 277.283 389.736 278.312 390.258C279.342 390.766 280.209 391.496 280.913 392.448C281.617 393.399 282.144 394.539 282.496 395.869C282.861 397.185 283.044 398.652 283.044 400.268ZM279.407 400.679V400.268C279.407 399.212 279.297 398.222 279.075 397.296C278.853 396.358 278.508 395.537 278.039 394.833C277.583 394.116 276.996 393.555 276.279 393.151C275.562 392.734 274.708 392.526 273.718 392.526C272.805 392.526 272.01 392.682 271.333 392.995C270.668 393.308 270.101 393.731 269.632 394.266C269.162 394.787 268.778 395.387 268.478 396.064C268.191 396.729 267.976 397.42 267.833 398.137V403.201C268.094 404.113 268.459 404.973 268.928 405.781C269.397 406.577 270.023 407.222 270.805 407.717C271.587 408.199 272.571 408.44 273.757 408.44C274.735 408.44 275.575 408.238 276.279 407.834C276.996 407.417 277.583 406.85 278.039 406.133C278.508 405.417 278.853 404.595 279.075 403.67C279.297 402.731 279.407 401.734 279.407 400.679Z" fill="white"/>
<circle cx="250.1" cy="200.08" r="152.5" fill="#222222"/>
<path fill-rule="evenodd" clip-rule="evenodd" d="M213.928 252.915L204.189 264.65C185.112 248.816 173.85 225.36 173.85 200.08C173.85 174.835 185.08 151.408 204.112 135.574L213.866 147.297C198.28 160.264 189.1 179.414 189.1 200.08C189.1 220.774 198.306 239.949 213.928 252.915ZM286.272 252.915L296.011 264.65C315.089 248.816 326.35 225.36 326.35 200.08C326.35 174.835 315.12 151.408 296.088 135.574L286.334 147.297C301.92 160.264 311.1 179.414 311.1 200.08C311.1 220.774 301.894 239.949 286.272 252.915ZM266.711 229.512L276.413 241.278C288.628 231.205 295.85 216.225 295.85 200.08C295.85 183.988 288.675 169.052 276.529 158.979L266.794 170.717C275.483 177.923 280.6 188.576 280.6 200.08C280.6 211.622 275.449 222.306 266.711 229.512ZM223.787 241.278L233.489 229.512C224.751 222.306 219.6 211.622 219.6 200.08C219.6 188.576 224.717 177.923 233.406 170.717L223.671 158.979C211.524 169.052 204.35 183.988 204.35 200.08C204.35 216.225 211.572 231.205 223.787 241.278Z" fill="white"/>
<path fill-rule="evenodd" clip-rule="evenodd" d="M250.1 215.33C258.522 215.33 265.35 208.502 265.35 200.08C265.35 191.658 258.522 184.83 250.1 184.83C241.678 184.83 234.85 191.658 234.85 200.08C234.85 208.502 241.678 215.33 250.1 215.33Z" fill="#646464"/>
</svg>
