<svg width="488" height="488" viewBox="0 0 488 488" fill="none" xmlns="http://www.w3.org/2000/svg">
<rect x="1" y="1" width="486" height="486" stroke="#4B4B4B" stroke-width="2"/>
<path d="M193.323 407.952V411.021H178.249V407.952H193.323ZM179.011 382.555V411.021H175.238V382.555H179.011ZM191.329 394.794V397.863H178.249V394.794H191.329ZM193.128 382.555V385.644H178.249V382.555H193.128ZM210.391 406.915V380.99H214.028V411.021H210.704L210.391 406.915ZM196.158 400.679V400.268C196.158 398.652 196.353 397.185 196.744 395.869C197.149 394.539 197.716 393.399 198.445 392.448C199.188 391.496 200.068 390.766 201.085 390.258C202.115 389.736 203.262 389.476 204.526 389.476C205.855 389.476 207.015 389.71 208.006 390.18C209.01 390.636 209.857 391.307 210.548 392.193C211.252 393.067 211.805 394.122 212.21 395.361C212.614 396.599 212.894 398 213.05 399.564V401.363C212.907 402.914 212.627 404.309 212.21 405.547C211.805 406.785 211.252 407.841 210.548 408.714C209.857 409.587 209.01 410.259 208.006 410.728C207.002 411.184 205.829 411.412 204.487 411.412C203.249 411.412 202.115 411.145 201.085 410.611C200.068 410.076 199.188 409.327 198.445 408.362C197.716 407.398 197.149 406.264 196.744 404.96C196.353 403.644 196.158 402.217 196.158 400.679ZM199.794 400.268V400.679C199.794 401.734 199.899 402.725 200.107 403.65C200.329 404.576 200.668 405.39 201.124 406.094C201.58 406.798 202.16 407.352 202.864 407.756C203.568 408.147 204.409 408.343 205.386 408.343C206.585 408.343 207.569 408.089 208.338 407.58C209.12 407.072 209.746 406.401 210.215 405.566C210.685 404.732 211.05 403.826 211.31 402.849V398.137C211.154 397.42 210.926 396.729 210.626 396.064C210.339 395.387 209.961 394.787 209.492 394.266C209.036 393.731 208.469 393.308 207.791 392.995C207.126 392.682 206.338 392.526 205.425 392.526C204.435 392.526 203.581 392.734 202.864 393.151C202.16 393.555 201.58 394.116 201.124 394.833C200.668 395.537 200.329 396.358 200.107 397.296C199.899 398.222 199.794 399.212 199.794 400.268ZM232.602 406.133V389.867H236.238V411.021H232.778L232.602 406.133ZM233.286 401.676L234.791 401.637C234.791 403.044 234.641 404.348 234.342 405.547C234.055 406.733 233.586 407.763 232.934 408.636C232.282 409.509 231.428 410.194 230.373 410.689C229.317 411.171 228.033 411.412 226.521 411.412C225.491 411.412 224.546 411.262 223.686 410.963C222.839 410.663 222.109 410.2 221.496 409.574C220.884 408.949 220.408 408.134 220.069 407.131C219.743 406.127 219.58 404.921 219.58 403.514V389.867H223.197V403.553C223.197 404.504 223.302 405.293 223.51 405.918C223.732 406.531 224.025 407.02 224.39 407.385C224.768 407.737 225.185 407.984 225.641 408.128C226.111 408.271 226.593 408.343 227.088 408.343C228.626 408.343 229.845 408.049 230.744 407.463C231.644 406.863 232.289 406.062 232.68 405.058C233.084 404.041 233.286 402.914 233.286 401.676ZM250.217 408.44C251.078 408.44 251.873 408.264 252.603 407.913C253.332 407.561 253.932 407.078 254.401 406.466C254.87 405.84 255.138 405.13 255.203 404.335H258.644C258.579 405.586 258.155 406.753 257.373 407.834C256.604 408.903 255.594 409.77 254.343 410.435C253.091 411.086 251.716 411.412 250.217 411.412C248.627 411.412 247.239 411.132 246.053 410.572C244.88 410.011 243.902 409.242 243.12 408.264C242.351 407.287 241.771 406.166 241.38 404.902C241.002 403.624 240.813 402.275 240.813 400.855V400.033C240.813 398.613 241.002 397.27 241.38 396.006C241.771 394.728 242.351 393.601 243.12 392.623C243.902 391.646 244.88 390.877 246.053 390.316C247.239 389.756 248.627 389.476 250.217 389.476C251.873 389.476 253.319 389.815 254.558 390.492C255.796 391.157 256.767 392.07 257.471 393.23C258.188 394.377 258.579 395.68 258.644 397.14H255.203C255.138 396.267 254.89 395.478 254.46 394.774C254.043 394.07 253.469 393.51 252.739 393.093C252.022 392.663 251.182 392.448 250.217 392.448C249.109 392.448 248.177 392.669 247.421 393.112C246.678 393.542 246.085 394.129 245.642 394.872C245.212 395.602 244.899 396.416 244.704 397.316C244.521 398.202 244.43 399.108 244.43 400.033V400.855C244.43 401.78 244.521 402.692 244.704 403.592C244.886 404.491 245.193 405.306 245.623 406.036C246.066 406.766 246.659 407.352 247.402 407.795C248.158 408.225 249.096 408.44 250.217 408.44ZM275.184 407.404V396.514C275.184 395.68 275.015 394.957 274.676 394.344C274.35 393.718 273.855 393.236 273.19 392.897C272.525 392.558 271.704 392.389 270.727 392.389C269.814 392.389 269.013 392.545 268.322 392.858C267.644 393.171 267.11 393.581 266.719 394.09C266.341 394.598 266.152 395.146 266.152 395.732H262.535C262.535 394.976 262.73 394.227 263.121 393.484C263.512 392.741 264.073 392.07 264.803 391.47C265.545 390.857 266.432 390.375 267.461 390.023C268.504 389.658 269.664 389.476 270.942 389.476C272.48 389.476 273.835 389.736 275.008 390.258C276.194 390.779 277.12 391.568 277.785 392.623C278.462 393.666 278.801 394.976 278.801 396.553V406.407C278.801 407.111 278.86 407.86 278.977 408.656C279.108 409.451 279.297 410.135 279.544 410.708V411.021H275.771C275.588 410.604 275.445 410.05 275.341 409.359C275.236 408.656 275.184 408.004 275.184 407.404ZM275.81 398.196L275.849 400.737H272.193C271.163 400.737 270.244 400.822 269.436 400.991C268.628 401.148 267.95 401.389 267.403 401.715C266.855 402.041 266.438 402.451 266.152 402.947C265.865 403.429 265.721 403.996 265.721 404.648C265.721 405.312 265.871 405.918 266.171 406.466C266.471 407.013 266.921 407.45 267.52 407.776C268.133 408.089 268.882 408.245 269.769 408.245C270.876 408.245 271.854 408.01 272.701 407.541C273.548 407.072 274.22 406.498 274.715 405.821C275.223 405.143 275.497 404.485 275.536 403.846L277.081 405.586C276.989 406.133 276.742 406.739 276.338 407.404C275.934 408.069 275.393 408.708 274.715 409.32C274.05 409.92 273.255 410.422 272.33 410.826C271.417 411.217 270.388 411.412 269.241 411.412C267.807 411.412 266.549 411.132 265.467 410.572C264.398 410.011 263.564 409.262 262.965 408.323C262.378 407.372 262.085 406.309 262.085 405.136C262.085 404.002 262.306 403.005 262.75 402.145C263.193 401.272 263.831 400.548 264.666 399.975C265.5 399.388 266.503 398.945 267.677 398.645C268.85 398.345 270.16 398.196 271.606 398.196H275.81ZM293.347 389.867V392.643H281.91V389.867H293.347ZM285.781 384.725H289.398V405.781C289.398 406.498 289.509 407.039 289.73 407.404C289.952 407.769 290.239 408.01 290.591 408.128C290.943 408.245 291.321 408.304 291.725 408.304C292.024 408.304 292.337 408.278 292.663 408.225C293.002 408.16 293.256 408.108 293.426 408.069L293.445 411.021C293.158 411.112 292.78 411.197 292.311 411.275C291.855 411.367 291.301 411.412 290.649 411.412C289.763 411.412 288.948 411.236 288.205 410.884C287.462 410.532 286.869 409.946 286.426 409.125C285.996 408.291 285.781 407.17 285.781 405.762V384.725ZM306.369 411.412C304.896 411.412 303.56 411.165 302.361 410.669C301.174 410.161 300.151 409.451 299.291 408.538C298.444 407.626 297.792 406.544 297.336 405.293C296.88 404.041 296.652 402.673 296.652 401.187V400.366C296.652 398.645 296.906 397.114 297.414 395.771C297.922 394.416 298.613 393.269 299.486 392.33C300.36 391.392 301.35 390.681 302.458 390.199C303.566 389.717 304.713 389.476 305.899 389.476C307.411 389.476 308.715 389.736 309.81 390.258C310.917 390.779 311.823 391.509 312.527 392.448C313.231 393.373 313.752 394.468 314.091 395.732C314.43 396.983 314.6 398.352 314.6 399.838V401.461H298.802V398.508H310.983V398.235C310.93 397.296 310.735 396.384 310.396 395.498C310.07 394.611 309.549 393.881 308.832 393.308C308.115 392.734 307.138 392.448 305.899 392.448C305.078 392.448 304.322 392.623 303.631 392.975C302.941 393.314 302.347 393.823 301.852 394.5C301.357 395.178 300.972 396.006 300.699 396.983C300.425 397.961 300.288 399.088 300.288 400.366V401.187C300.288 402.191 300.425 403.136 300.699 404.022C300.985 404.895 301.396 405.664 301.93 406.329C302.478 406.994 303.136 407.515 303.905 407.893C304.687 408.271 305.573 408.46 306.564 408.46C307.841 408.46 308.923 408.199 309.81 407.678C310.696 407.157 311.471 406.459 312.136 405.586L314.326 407.326C313.87 408.017 313.29 408.675 312.586 409.301C311.882 409.926 311.015 410.435 309.986 410.826C308.969 411.217 307.763 411.412 306.369 411.412Z" fill="white"/>
<circle cx="250.1" cy="200.08" r="152.5" fill="#222222"/>
<path opacity="0.3" fill-rule="evenodd" clip-rule="evenodd" d="M250.1 238.205C283.789 238.205 311.1 210.894 311.1 177.205C311.1 143.516 283.789 116.205 250.1 116.205C216.411 116.205 189.1 143.516 189.1 177.205C189.1 210.894 216.411 238.205 250.1 238.205Z" fill="white"/>
<path opacity="0.3" fill-rule="evenodd" clip-rule="evenodd" d="M208.453 177.205L239.181 256.219L249.916 252.044L260.58 256.257L291.811 177.205H208.453ZM230.746 192.455H269.389L249.916 241.747L230.746 192.455Z" fill="#DADADA"/>
<path opacity="0.3" d="M234.85 276.33H265.35V289.578C265.35 290.684 264.454 291.58 263.348 291.58H236.852C235.746 291.58 234.85 290.684 234.85 289.578V276.33Z" fill="#FCFCFC"/>
<path d="M219.6 233.02C219.6 231.672 220.693 230.58 222.04 230.58H278.16C279.508 230.58 280.6 231.672 280.6 233.02V243.39C280.6 244.738 279.508 245.83 278.16 245.83H222.04C220.693 245.83 219.6 244.738 219.6 243.39V233.02Z" fill="white"/>
<path d="M219.6 248.27C219.6 246.922 220.693 245.83 222.04 245.83H278.16C279.508 245.83 280.6 246.922 280.6 248.27V258.64C280.6 259.988 279.508 261.08 278.16 261.08C279.508 261.08 280.6 262.172 280.6 263.52V273.89C280.6 275.238 279.508 276.33 278.16 276.33H222.04C220.693 276.33 219.6 275.238 219.6 273.89V263.52C219.6 262.172 220.693 261.08 222.04 261.08C220.693 261.08 219.6 259.988 219.6 258.64V248.27Z" fill="white"/>
</svg>
