<svg width="488" height="488" viewBox="0 0 488 488" fill="none" xmlns="http://www.w3.org/2000/svg">
<rect x="1" y="1" width="486" height="486" stroke="#4B4B4B" stroke-width="2"/>
<path d="M208.671 382.555H212.425V401.813C212.425 403.95 211.949 405.729 210.997 407.15C210.046 408.571 208.782 409.64 207.204 410.356C205.64 411.06 203.939 411.412 202.102 411.412C200.172 411.412 198.426 411.06 196.862 410.356C195.311 409.64 194.079 408.571 193.167 407.15C192.267 405.729 191.818 403.95 191.818 401.813V382.555H195.552V401.813C195.552 403.298 195.826 404.524 196.373 405.488C196.92 406.453 197.683 407.17 198.661 407.639C199.651 408.108 200.798 408.343 202.102 408.343C203.418 408.343 204.565 408.108 205.543 407.639C206.533 407.17 207.302 406.453 207.85 405.488C208.397 404.524 208.671 403.298 208.671 401.813V382.555ZM221.418 393.933V419.155H217.782V389.867H221.105L221.418 393.933ZM235.671 400.268V400.679C235.671 402.217 235.489 403.644 235.124 404.96C234.759 406.264 234.224 407.398 233.52 408.362C232.83 409.327 231.976 410.076 230.959 410.611C229.943 411.145 228.776 411.412 227.46 411.412C226.117 411.412 224.931 411.191 223.901 410.748C222.872 410.304 221.998 409.659 221.281 408.812C220.564 407.965 219.991 406.948 219.561 405.762C219.144 404.576 218.857 403.24 218.701 401.754V399.564C218.857 398 219.15 396.599 219.58 395.361C220.011 394.122 220.578 393.067 221.281 392.193C221.998 391.307 222.865 390.636 223.882 390.18C224.898 389.71 226.071 389.476 227.401 389.476C228.73 389.476 229.91 389.736 230.94 390.258C231.969 390.766 232.836 391.496 233.54 392.448C234.244 393.399 234.772 394.539 235.124 395.869C235.489 397.185 235.671 398.652 235.671 400.268ZM232.035 400.679V400.268C232.035 399.212 231.924 398.222 231.702 397.296C231.481 396.358 231.135 395.537 230.666 394.833C230.21 394.116 229.623 393.555 228.906 393.151C228.189 392.734 227.336 392.526 226.345 392.526C225.433 392.526 224.638 392.682 223.96 392.995C223.295 393.308 222.728 393.731 222.259 394.266C221.79 394.787 221.405 395.387 221.105 396.064C220.819 396.729 220.604 397.42 220.46 398.137V403.201C220.721 404.113 221.086 404.973 221.555 405.781C222.024 406.577 222.65 407.222 223.432 407.717C224.214 408.199 225.198 408.44 226.384 408.44C227.362 408.44 228.203 408.238 228.906 407.834C229.623 407.417 230.21 406.85 230.666 406.133C231.135 405.417 231.481 404.595 231.702 403.67C231.924 402.731 232.035 401.734 232.035 400.679ZM252.603 405.41C252.603 404.889 252.485 404.406 252.251 403.963C252.029 403.507 251.566 403.096 250.862 402.731C250.172 402.353 249.129 402.028 247.734 401.754C246.561 401.506 245.499 401.213 244.547 400.874C243.609 400.535 242.807 400.125 242.143 399.642C241.491 399.16 240.989 398.593 240.637 397.941C240.285 397.29 240.109 396.527 240.109 395.654C240.109 394.82 240.292 394.031 240.657 393.288C241.035 392.545 241.563 391.887 242.24 391.314C242.931 390.74 243.759 390.29 244.723 389.964C245.688 389.639 246.763 389.476 247.949 389.476C249.644 389.476 251.091 389.775 252.29 390.375C253.489 390.975 254.408 391.776 255.046 392.78C255.685 393.77 256.004 394.872 256.004 396.084H252.387C252.387 395.498 252.211 394.931 251.86 394.383C251.521 393.823 251.019 393.36 250.354 392.995C249.702 392.63 248.901 392.448 247.949 392.448C246.946 392.448 246.131 392.604 245.505 392.917C244.893 393.217 244.443 393.601 244.156 394.07C243.883 394.539 243.746 395.035 243.746 395.556C243.746 395.947 243.811 396.299 243.941 396.612C244.085 396.912 244.332 397.192 244.684 397.453C245.036 397.7 245.531 397.935 246.17 398.156C246.809 398.378 247.623 398.6 248.614 398.821C250.348 399.212 251.775 399.681 252.896 400.229C254.017 400.776 254.851 401.448 255.398 402.243C255.946 403.038 256.219 404.002 256.219 405.136C256.219 406.062 256.024 406.909 255.633 407.678C255.255 408.447 254.701 409.112 253.971 409.672C253.254 410.22 252.394 410.65 251.39 410.963C250.4 411.262 249.285 411.412 248.047 411.412C246.183 411.412 244.606 411.08 243.316 410.415C242.025 409.75 241.048 408.89 240.383 407.834C239.718 406.779 239.386 405.664 239.386 404.491H243.022C243.075 405.482 243.361 406.27 243.883 406.857C244.404 407.43 245.043 407.841 245.799 408.089C246.555 408.323 247.304 408.44 248.047 408.44C249.038 408.44 249.865 408.31 250.53 408.049C251.208 407.789 251.723 407.43 252.075 406.974C252.427 406.518 252.603 405.997 252.603 405.41ZM269.749 411.412C268.276 411.412 266.94 411.165 265.741 410.669C264.555 410.161 263.532 409.451 262.671 408.538C261.824 407.626 261.172 406.544 260.716 405.293C260.26 404.041 260.032 402.673 260.032 401.187V400.366C260.032 398.645 260.286 397.114 260.794 395.771C261.303 394.416 261.994 393.269 262.867 392.33C263.74 391.392 264.731 390.681 265.839 390.199C266.947 389.717 268.094 389.476 269.28 389.476C270.792 389.476 272.095 389.736 273.19 390.258C274.298 390.779 275.204 391.509 275.908 392.448C276.611 393.373 277.133 394.468 277.472 395.732C277.811 396.983 277.98 398.352 277.98 399.838V401.461H262.183V398.508H274.363V398.235C274.311 397.296 274.115 396.384 273.777 395.498C273.451 394.611 272.929 393.881 272.212 393.308C271.496 392.734 270.518 392.448 269.28 392.448C268.459 392.448 267.703 392.623 267.012 392.975C266.321 393.314 265.728 393.823 265.233 394.5C264.737 395.178 264.353 396.006 264.079 396.983C263.805 397.961 263.669 399.088 263.669 400.366V401.187C263.669 402.191 263.805 403.136 264.079 404.022C264.366 404.895 264.776 405.664 265.311 406.329C265.858 406.994 266.516 407.515 267.286 407.893C268.068 408.271 268.954 408.46 269.944 408.46C271.222 408.46 272.304 408.199 273.19 407.678C274.076 407.157 274.852 406.459 275.517 405.586L277.706 407.326C277.25 408.017 276.67 408.675 275.966 409.301C275.262 409.926 274.396 410.435 273.366 410.826C272.349 411.217 271.144 411.412 269.749 411.412ZM286.133 380.99V411.021H282.496V380.99H286.133ZM295.869 380.99V411.021H292.233V380.99H295.869Z" fill="white"/>
<circle cx="250.1" cy="200.08" r="152.5" fill="#222222"/>
<rect opacity="0.3" x="288.225" y="139.08" width="22.875" height="99.125" rx="1.5" fill="#FCFCFC"/>
<rect opacity="0.3" x="250.1" y="177.205" width="22.875" height="61" rx="1.5" fill="#FCFCFC"/>
<path d="M196.725 253.455H311.1C315.311 253.455 318.725 256.869 318.725 261.08C318.725 265.291 315.311 268.705 311.1 268.705H189.1C184.889 268.705 181.475 265.291 181.475 261.08V139.08C181.475 134.869 184.889 131.455 189.1 131.455C193.311 131.455 196.725 134.869 196.725 139.08V253.455Z" fill="#FCFCFC"/>
<rect opacity="0.3" x="211.975" y="192.455" width="22.875" height="45.75" rx="1.5" fill="#FCFCFC"/>
</svg>
