<svg width="488" height="488" viewBox="0 0 488 488" fill="none" xmlns="http://www.w3.org/2000/svg">
<rect x="1" y="1" width="486" height="486" stroke="#4B4B4B" stroke-width="2"/>
<path d="M201.789 382.555V411.021H197.996L183.665 389.065V411.021H179.891V382.555H183.665L198.054 404.569V382.555H201.789ZM220.871 406.133V389.867H224.507V411.021H221.047L220.871 406.133ZM221.555 401.676L223.061 401.637C223.061 403.044 222.911 404.348 222.611 405.547C222.324 406.733 221.855 407.763 221.203 408.636C220.551 409.509 219.698 410.194 218.642 410.689C217.586 411.171 216.302 411.412 214.79 411.412C213.761 411.412 212.816 411.262 211.955 410.963C211.108 410.663 210.378 410.2 209.766 409.574C209.153 408.949 208.677 408.134 208.338 407.131C208.013 406.127 207.85 404.921 207.85 403.514V389.867H211.467V403.553C211.467 404.504 211.571 405.293 211.779 405.918C212.001 406.531 212.294 407.02 212.659 407.385C213.037 407.737 213.454 407.984 213.911 408.128C214.38 408.271 214.862 408.343 215.357 408.343C216.895 408.343 218.114 408.049 219.013 407.463C219.913 406.863 220.558 406.062 220.949 405.058C221.353 404.041 221.555 402.914 221.555 401.676ZM233.638 393.19V411.021H230.021V389.867H233.54L233.638 393.19ZM240.246 389.749L240.227 393.112C239.927 393.047 239.64 393.008 239.366 392.995C239.106 392.969 238.806 392.956 238.467 392.956C237.633 392.956 236.896 393.086 236.258 393.347C235.619 393.608 235.078 393.973 234.635 394.442C234.192 394.911 233.84 395.471 233.579 396.123C233.331 396.762 233.169 397.466 233.09 398.235L232.074 398.821C232.074 397.544 232.197 396.345 232.445 395.224C232.706 394.103 233.103 393.112 233.638 392.252C234.172 391.379 234.85 390.701 235.671 390.219C236.505 389.723 237.496 389.476 238.643 389.476C238.904 389.476 239.203 389.508 239.542 389.573C239.881 389.626 240.116 389.684 240.246 389.749ZM253.424 389.867V392.643H241.986V389.867H253.424ZM245.857 384.725H249.474V405.781C249.474 406.498 249.585 407.039 249.807 407.404C250.028 407.769 250.315 408.01 250.667 408.128C251.019 408.245 251.397 408.304 251.801 408.304C252.101 408.304 252.414 408.278 252.739 408.225C253.078 408.16 253.332 408.108 253.502 408.069L253.521 411.021C253.235 411.112 252.857 411.197 252.387 411.275C251.931 411.367 251.377 411.412 250.726 411.412C249.839 411.412 249.025 411.236 248.282 410.884C247.539 410.532 246.946 409.946 246.503 409.125C246.072 408.291 245.857 407.17 245.857 405.762V384.725ZM270.609 406.133V389.867H274.246V411.021H270.785L270.609 406.133ZM271.294 401.676L272.799 401.637C272.799 403.044 272.649 404.348 272.349 405.547C272.063 406.733 271.593 407.763 270.942 408.636C270.29 409.509 269.436 410.194 268.38 410.689C267.325 411.171 266.041 411.412 264.529 411.412C263.499 411.412 262.554 411.262 261.694 410.963C260.847 410.663 260.117 410.2 259.504 409.574C258.891 408.949 258.416 408.134 258.077 407.131C257.751 406.127 257.588 404.921 257.588 403.514V389.867H261.205V403.553C261.205 404.504 261.309 405.293 261.518 405.918C261.739 406.531 262.033 407.02 262.398 407.385C262.776 407.737 263.193 407.984 263.649 408.128C264.118 408.271 264.6 408.343 265.096 408.343C266.634 408.343 267.853 408.049 268.752 407.463C269.651 406.863 270.296 406.062 270.687 405.058C271.091 404.041 271.294 402.914 271.294 401.676ZM283.376 393.19V411.021H279.759V389.867H283.278L283.376 393.19ZM289.985 389.749L289.965 393.112C289.665 393.047 289.378 393.008 289.105 392.995C288.844 392.969 288.544 392.956 288.205 392.956C287.371 392.956 286.635 393.086 285.996 393.347C285.357 393.608 284.816 393.973 284.373 394.442C283.93 394.911 283.578 395.471 283.318 396.123C283.07 396.762 282.907 397.466 282.829 398.235L281.812 398.821C281.812 397.544 281.936 396.345 282.184 395.224C282.444 394.103 282.842 393.112 283.376 392.252C283.911 391.379 284.588 390.701 285.41 390.219C286.244 389.723 287.234 389.476 288.381 389.476C288.642 389.476 288.942 389.508 289.281 389.573C289.62 389.626 289.854 389.684 289.985 389.749ZM301.715 411.412C300.242 411.412 298.906 411.165 297.707 410.669C296.521 410.161 295.498 409.451 294.638 408.538C293.791 407.626 293.139 406.544 292.683 405.293C292.226 404.041 291.998 402.673 291.998 401.187V400.366C291.998 398.645 292.253 397.114 292.761 395.771C293.269 394.416 293.96 393.269 294.833 392.33C295.707 391.392 296.697 390.681 297.805 390.199C298.913 389.717 300.06 389.476 301.246 389.476C302.758 389.476 304.061 389.736 305.156 390.258C306.264 390.779 307.17 391.509 307.874 392.448C308.578 393.373 309.099 394.468 309.438 395.732C309.777 396.983 309.946 398.352 309.946 399.838V401.461H294.149V398.508H306.329V398.235C306.277 397.296 306.082 396.384 305.743 395.498C305.417 394.611 304.896 393.881 304.179 393.308C303.462 392.734 302.484 392.448 301.246 392.448C300.425 392.448 299.669 392.623 298.978 392.975C298.287 393.314 297.694 393.823 297.199 394.5C296.704 395.178 296.319 396.006 296.045 396.983C295.772 397.961 295.635 399.088 295.635 400.366V401.187C295.635 402.191 295.772 403.136 296.045 404.022C296.332 404.895 296.743 405.664 297.277 406.329C297.825 406.994 298.483 407.515 299.252 407.893C300.034 408.271 300.92 408.46 301.911 408.46C303.188 408.46 304.27 408.199 305.156 407.678C306.043 407.157 306.818 406.459 307.483 405.586L309.673 407.326C309.216 408.017 308.636 408.675 307.933 409.301C307.229 409.926 306.362 410.435 305.332 410.826C304.316 411.217 303.11 411.412 301.715 411.412Z" fill="white"/>
<circle cx="250.1" cy="200.08" r="152.5" fill="#222222"/>
<path opacity="0.3" fill-rule="evenodd" clip-rule="evenodd" d="M238.627 166.23C238.647 165.969 238.864 165.767 239.126 165.767H245.834C246.092 165.767 246.307 165.962 246.332 166.218L250.1 203.892L276.535 218.998C276.691 219.088 276.787 219.253 276.787 219.433V226.112C276.787 226.442 276.474 226.682 276.155 226.595L235.249 215.439C235.017 215.376 234.863 215.157 234.882 214.918L238.627 166.23Z" fill="white"/>
<path fill-rule="evenodd" clip-rule="evenodd" d="M201.651 114.351C201.387 114.036 200.877 114.157 200.781 114.557L189.617 161.362C189.539 161.688 189.797 161.997 190.132 161.978L238.281 159.249C238.692 159.226 238.901 158.743 238.636 158.428L225.309 142.545C231.971 140.269 239.034 139.08 246.287 139.08C282.082 139.08 311.1 168.098 311.1 203.893C311.1 239.688 282.082 268.705 246.287 268.705C210.493 268.705 181.475 239.688 181.475 203.893C181.475 197.884 182.289 191.998 183.875 186.341L169.192 182.223C167.259 189.115 166.225 196.383 166.225 203.893C166.225 248.11 202.07 283.955 246.287 283.955C290.505 283.955 326.35 248.11 326.35 203.893C326.35 159.675 290.505 123.83 246.287 123.83C235.165 123.83 224.573 126.098 214.947 130.197L201.651 114.351Z" fill="white"/>
</svg>
