<svg width="488" height="488" viewBox="0 0 488 488" fill="none" xmlns="http://www.w3.org/2000/svg">
<rect x="1" y="1" width="486" height="486" stroke="#4B4B4B" stroke-width="2"/>
<path d="M230.236 403.826C230.236 403.162 230.132 402.575 229.923 402.067C229.728 401.545 229.376 401.076 228.867 400.659C228.372 400.242 227.681 399.844 226.795 399.466C225.922 399.088 224.814 398.704 223.471 398.313C222.063 397.896 220.793 397.433 219.659 396.925C218.525 396.403 217.554 395.81 216.745 395.146C215.937 394.481 215.318 393.718 214.888 392.858C214.458 391.998 214.243 391.014 214.243 389.906C214.243 388.798 214.471 387.775 214.927 386.836C215.383 385.898 216.035 385.083 216.882 384.392C217.743 383.689 218.766 383.141 219.952 382.75C221.138 382.359 222.461 382.164 223.921 382.164C226.058 382.164 227.87 382.574 229.356 383.395C230.855 384.203 231.995 385.266 232.778 386.582C233.56 387.886 233.951 389.28 233.951 390.766H230.197C230.197 389.697 229.969 388.752 229.512 387.931C229.056 387.097 228.365 386.445 227.44 385.976C226.515 385.494 225.341 385.253 223.921 385.253C222.578 385.253 221.47 385.455 220.597 385.859C219.724 386.263 219.072 386.81 218.642 387.501C218.225 388.192 218.016 388.98 218.016 389.867C218.016 390.466 218.14 391.014 218.388 391.509C218.648 391.991 219.046 392.441 219.58 392.858C220.128 393.275 220.819 393.66 221.653 394.012C222.5 394.364 223.51 394.702 224.683 395.028C226.3 395.484 227.694 395.993 228.867 396.553C230.04 397.114 231.005 397.746 231.761 398.45C232.53 399.141 233.097 399.929 233.462 400.815C233.84 401.689 234.029 402.679 234.029 403.787C234.029 404.947 233.794 405.997 233.325 406.935C232.856 407.873 232.184 408.675 231.311 409.34C230.438 410.005 229.389 410.519 228.163 410.884C226.951 411.236 225.596 411.412 224.097 411.412C222.78 411.412 221.483 411.23 220.206 410.865C218.942 410.5 217.788 409.952 216.745 409.223C215.716 408.493 214.888 407.593 214.262 406.524C213.65 405.443 213.344 404.191 213.344 402.771H217.097C217.097 403.748 217.286 404.589 217.664 405.293C218.042 405.984 218.557 406.557 219.209 407.013C219.874 407.469 220.623 407.808 221.457 408.03C222.305 408.238 223.184 408.343 224.097 408.343C225.413 408.343 226.528 408.16 227.44 407.795C228.352 407.43 229.043 406.909 229.512 406.231C229.995 405.553 230.236 404.752 230.236 403.826ZM247.069 411.412C245.597 411.412 244.261 411.165 243.061 410.669C241.875 410.161 240.852 409.451 239.992 408.538C239.145 407.626 238.493 406.544 238.037 405.293C237.581 404.041 237.353 402.673 237.353 401.187V400.366C237.353 398.645 237.607 397.114 238.115 395.771C238.623 394.416 239.314 393.269 240.187 392.33C241.061 391.392 242.051 390.681 243.159 390.199C244.267 389.717 245.414 389.476 246.6 389.476C248.112 389.476 249.416 389.736 250.511 390.258C251.618 390.779 252.524 391.509 253.228 392.448C253.932 393.373 254.453 394.468 254.792 395.732C255.131 396.983 255.301 398.352 255.301 399.838V401.461H239.503V398.508H251.684V398.235C251.631 397.296 251.436 396.384 251.097 395.498C250.771 394.611 250.25 393.881 249.533 393.308C248.816 392.734 247.839 392.448 246.6 392.448C245.779 392.448 245.023 392.623 244.332 392.975C243.641 393.314 243.048 393.823 242.553 394.5C242.058 395.178 241.673 396.006 241.4 396.983C241.126 397.961 240.989 399.088 240.989 400.366V401.187C240.989 402.191 241.126 403.136 241.4 404.022C241.686 404.895 242.097 405.664 242.631 406.329C243.179 406.994 243.837 407.515 244.606 407.893C245.388 408.271 246.274 408.46 247.265 408.46C248.542 408.46 249.624 408.199 250.511 407.678C251.397 407.157 252.172 406.459 252.837 405.586L255.027 407.326C254.571 408.017 253.991 408.675 253.287 409.301C252.583 409.926 251.716 410.435 250.686 410.826C249.67 411.217 248.464 411.412 247.069 411.412ZM263.453 380.99V411.021H259.817V380.99H263.453ZM273.19 380.99V411.021H269.553V380.99H273.19Z" fill="white"/>
<circle cx="250.1" cy="200.08" r="152.5" fill="#1B3153"/>
<path opacity="0.3" fill-rule="evenodd" clip-rule="evenodd" d="M292.531 207.228C291.402 212.067 286.598 215.074 281.76 213.945C276.921 212.816 273.913 207.978 275.042 203.139L290.787 135.663C291.737 131.591 295.367 128.71 299.548 128.71H315.293C320.262 128.71 324.29 132.738 324.29 137.707C324.29 142.676 320.262 146.704 315.293 146.704H306.688L292.531 207.228Z" fill="white"/>
<path fill-rule="evenodd" clip-rule="evenodd" d="M303.664 158.625C303.765 158.015 303.295 157.46 302.676 157.46H174.73C174.065 157.46 173.585 158.096 173.768 158.736L191.226 219.839C191.331 220.206 191.634 220.481 192.009 220.549L289.363 238.25C289.913 238.35 290.438 237.981 290.529 237.43L303.664 158.625Z" fill="white"/>
<path opacity="0.3" fill-rule="evenodd" clip-rule="evenodd" d="M219.6 257.267C219.6 263.584 214.479 268.705 208.163 268.705C201.846 268.705 196.725 263.584 196.725 257.267C196.725 250.951 201.846 245.83 208.163 245.83C214.479 245.83 219.6 250.951 219.6 257.267ZM288.225 257.267C288.225 263.584 283.104 268.705 276.788 268.705C270.471 268.705 265.35 263.584 265.35 257.267C265.35 250.951 270.471 245.83 276.788 245.83C283.104 245.83 288.225 250.951 288.225 257.267Z" fill="white"/>
<g opacity="0.8">
<path d="M96.3093 376.792C84.5323 376.792 74.985 365.828 74.985 352.303C74.985 338.778 84.5323 327.814 96.3093 327.814C108.086 327.814 117.634 338.778 117.634 352.303C117.634 365.828 108.086 376.792 96.3093 376.792Z" fill="white"/>
<path d="M50.0234 431.977C52.0394 403.47 72.1864 388.977 96.7428 388.977C121.645 388.977 142.104 402.674 143.628 431.982C143.689 433.149 143.628 436.76 139.721 436.76C120.448 436.76 91.809 436.76 53.8038 436.76C52.4994 436.76 49.9136 433.53 50.0234 431.977Z" fill="#1D3963"/>
</g>
</svg>
