<svg width="488" height="488" viewBox="0 0 488 488" fill="none" xmlns="http://www.w3.org/2000/svg">
<rect x="1" y="1" width="486" height="486" stroke="#4B4B4B" stroke-width="2"/>
<path d="M236.316 396.847V407.267C235.964 407.789 235.404 408.375 234.635 409.027C233.866 409.666 232.804 410.226 231.448 410.708C230.105 411.178 228.372 411.412 226.247 411.412C224.514 411.412 222.917 411.112 221.457 410.513C220.011 409.9 218.753 409.014 217.684 407.854C216.628 406.681 215.807 405.26 215.22 403.592C214.647 401.91 214.36 400.007 214.36 397.883V395.673C214.36 393.549 214.608 391.652 215.103 389.984C215.611 388.316 216.354 386.901 217.332 385.741C218.31 384.568 219.509 383.682 220.929 383.082C222.35 382.47 223.979 382.164 225.817 382.164C227.994 382.164 229.812 382.542 231.272 383.298C232.745 384.04 233.892 385.07 234.713 386.387C235.547 387.703 236.082 389.202 236.316 390.883H232.543C232.373 389.854 232.035 388.915 231.526 388.068C231.031 387.221 230.321 386.543 229.395 386.035C228.47 385.513 227.277 385.253 225.817 385.253C224.501 385.253 223.36 385.494 222.396 385.976C221.431 386.458 220.636 387.149 220.011 388.048C219.385 388.948 218.916 390.036 218.603 391.314C218.303 392.591 218.153 394.031 218.153 395.634V397.883C218.153 399.525 218.342 400.991 218.72 402.282C219.111 403.572 219.665 404.674 220.382 405.586C221.099 406.485 221.953 407.17 222.943 407.639C223.947 408.108 225.055 408.343 226.267 408.343C227.609 408.343 228.698 408.232 229.532 408.01C230.366 407.776 231.018 407.502 231.487 407.189C231.956 406.863 232.315 406.557 232.562 406.27V399.897H225.974V396.847H236.316ZM245.955 389.867V411.021H242.319V389.867H245.955ZM242.045 384.256C242.045 383.669 242.221 383.174 242.573 382.77C242.938 382.366 243.472 382.164 244.176 382.164C244.867 382.164 245.395 382.366 245.76 382.77C246.138 383.174 246.327 383.669 246.327 384.256C246.327 384.816 246.138 385.298 245.76 385.702C245.395 386.093 244.867 386.289 244.176 386.289C243.472 386.289 242.938 386.093 242.573 385.702C242.221 385.298 242.045 384.816 242.045 384.256ZM257.158 411.021H253.541V387.638C253.541 386.113 253.815 384.829 254.362 383.786C254.923 382.731 255.724 381.935 256.767 381.401C257.81 380.854 259.048 380.58 260.482 380.58C260.899 380.58 261.316 380.606 261.733 380.658C262.163 380.71 262.58 380.788 262.984 380.893L262.789 383.845C262.515 383.78 262.202 383.734 261.85 383.708C261.511 383.682 261.172 383.669 260.834 383.669C260.065 383.669 259.4 383.825 258.839 384.138C258.292 384.438 257.875 384.881 257.588 385.468C257.301 386.054 257.158 386.778 257.158 387.638V411.021ZM261.655 389.867V392.643H250.198V389.867H261.655ZM274.539 389.867V392.643H263.102V389.867H274.539ZM266.973 384.725H270.59V405.781C270.59 406.498 270.7 407.039 270.922 407.404C271.144 407.769 271.43 408.01 271.782 408.128C272.134 408.245 272.512 408.304 272.916 408.304C273.216 408.304 273.529 408.278 273.855 408.225C274.194 408.16 274.448 408.108 274.617 408.069L274.637 411.021C274.35 411.112 273.972 411.197 273.503 411.275C273.047 411.367 272.493 411.412 271.841 411.412C270.955 411.412 270.14 411.236 269.397 410.884C268.654 410.532 268.061 409.946 267.618 409.125C267.188 408.291 266.973 407.17 266.973 405.762V384.725Z" fill="white"/>
<circle cx="250.1" cy="200.08" r="152.5" fill="#222222"/>
<path fill-rule="evenodd" clip-rule="evenodd" d="M181.475 155.081C181.475 154.666 181.811 154.33 182.226 154.33H317.974C318.389 154.33 318.725 154.666 318.725 155.081V176.454C318.725 176.869 318.389 177.205 317.974 177.205H182.226C181.811 177.205 181.475 176.869 181.475 176.454V155.081ZM189.1 193.206C189.1 192.791 189.436 192.455 189.851 192.455H241.724C242.139 192.455 242.475 192.791 242.475 193.206V260.329C242.475 260.744 242.139 261.08 241.724 261.08H189.851C189.436 261.08 189.1 260.744 189.1 260.329V193.206ZM258.476 192.455C258.061 192.455 257.725 192.791 257.725 193.206V260.329C257.725 260.744 258.061 261.08 258.476 261.08H310.349C310.764 261.08 311.1 260.744 311.1 260.329V193.206C311.1 192.791 310.764 192.455 310.349 192.455H258.476Z" fill="white"/>
<path opacity="0.3" d="M268.745 125.11C272.249 122.775 276.983 123.721 279.319 127.225C281.655 130.729 280.708 135.463 277.204 137.799L250.1 155.869L222.995 137.799C219.491 135.463 218.544 130.729 220.88 127.225C223.216 123.721 227.95 122.775 231.454 125.11L250.1 137.541L268.745 125.11Z" fill="#646464"/>
</svg>
