<svg width="488" height="488" viewBox="0 0 488 488" fill="none" xmlns="http://www.w3.org/2000/svg">
<rect x="1" y="1" width="486" height="486" stroke="#4B4B4B" stroke-width="2"/>
<path d="M185.053 382.555V411.021H181.279V382.555H185.053ZM204.702 406.915V380.99H208.338V411.021H205.015L204.702 406.915ZM190.469 400.679V400.268C190.469 398.652 190.664 397.185 191.055 395.869C191.459 394.539 192.026 393.399 192.756 392.448C193.499 391.496 194.379 390.766 195.395 390.258C196.425 389.736 197.572 389.476 198.836 389.476C200.166 389.476 201.326 389.71 202.317 390.18C203.32 390.636 204.167 391.307 204.858 392.193C205.562 393.067 206.116 394.122 206.52 395.361C206.924 396.599 207.204 398 207.361 399.564V401.363C207.217 402.914 206.937 404.309 206.52 405.547C206.116 406.785 205.562 407.841 204.858 408.714C204.167 409.587 203.32 410.259 202.317 410.728C201.313 411.184 200.14 411.412 198.797 411.412C197.559 411.412 196.425 411.145 195.395 410.611C194.379 410.076 193.499 409.327 192.756 408.362C192.026 407.398 191.459 406.264 191.055 404.96C190.664 403.644 190.469 402.217 190.469 400.679ZM194.105 400.268V400.679C194.105 401.734 194.209 402.725 194.418 403.65C194.639 404.576 194.978 405.39 195.435 406.094C195.891 406.798 196.471 407.352 197.175 407.756C197.878 408.147 198.719 408.343 199.697 408.343C200.896 408.343 201.88 408.089 202.649 407.58C203.431 407.072 204.057 406.401 204.526 405.566C204.995 404.732 205.36 403.826 205.621 402.849V398.137C205.464 397.42 205.236 396.729 204.936 396.064C204.65 395.387 204.272 394.787 203.803 394.266C203.346 393.731 202.779 393.308 202.102 392.995C201.437 392.682 200.648 392.526 199.736 392.526C198.745 392.526 197.891 392.734 197.175 393.151C196.471 393.555 195.891 394.116 195.435 394.833C194.978 395.537 194.639 396.358 194.418 397.296C194.209 398.222 194.105 399.212 194.105 400.268ZM222.748 411.412C221.275 411.412 219.939 411.165 218.74 410.669C217.554 410.161 216.53 409.451 215.67 408.538C214.823 407.626 214.171 406.544 213.715 405.293C213.259 404.041 213.031 402.673 213.031 401.187V400.366C213.031 398.645 213.285 397.114 213.793 395.771C214.302 394.416 214.992 393.269 215.866 392.33C216.739 391.392 217.73 390.681 218.837 390.199C219.945 389.717 221.092 389.476 222.278 389.476C223.79 389.476 225.094 389.736 226.189 390.258C227.297 390.779 228.203 391.509 228.906 392.448C229.61 393.373 230.132 394.468 230.47 395.732C230.809 396.983 230.979 398.352 230.979 399.838V401.461H215.181V398.508H227.362V398.235C227.31 397.296 227.114 396.384 226.775 395.498C226.449 394.611 225.928 393.881 225.211 393.308C224.494 392.734 223.517 392.448 222.278 392.448C221.457 392.448 220.701 392.623 220.011 392.975C219.32 393.314 218.727 393.823 218.231 394.5C217.736 395.178 217.352 396.006 217.078 396.983C216.804 397.961 216.667 399.088 216.667 400.366V401.187C216.667 402.191 216.804 403.136 217.078 404.022C217.365 404.895 217.775 405.664 218.31 406.329C218.857 406.994 219.515 407.515 220.284 407.893C221.066 408.271 221.953 408.46 222.943 408.46C224.221 408.46 225.302 408.199 226.189 407.678C227.075 407.157 227.851 406.459 228.515 405.586L230.705 407.326C230.249 408.017 229.669 408.675 228.965 409.301C228.261 409.926 227.394 410.435 226.365 410.826C225.348 411.217 224.142 411.412 222.748 411.412ZM238.819 394.383V411.021H235.202V389.867H238.623L238.819 394.383ZM237.959 399.642L236.453 399.584C236.466 398.137 236.681 396.801 237.098 395.576C237.515 394.337 238.102 393.262 238.858 392.35C239.614 391.437 240.513 390.734 241.556 390.238C242.612 389.73 243.778 389.476 245.056 389.476C246.098 389.476 247.037 389.619 247.871 389.906C248.705 390.18 249.416 390.623 250.002 391.235C250.602 391.848 251.058 392.643 251.371 393.621C251.684 394.585 251.84 395.765 251.84 397.159V411.021H248.203V397.12C248.203 396.012 248.041 395.126 247.715 394.461C247.389 393.784 246.913 393.295 246.287 392.995C245.662 392.682 244.893 392.526 243.98 392.526C243.081 392.526 242.26 392.715 241.517 393.093C240.787 393.471 240.155 393.992 239.62 394.657C239.099 395.322 238.689 396.084 238.389 396.944C238.102 397.792 237.959 398.691 237.959 399.642ZM266.191 389.867V392.643H254.753V389.867H266.191ZM258.624 384.725H262.241V405.781C262.241 406.498 262.352 407.039 262.574 407.404C262.795 407.769 263.082 408.01 263.434 408.128C263.786 408.245 264.164 408.304 264.568 408.304C264.868 408.304 265.18 408.278 265.506 408.225C265.845 408.16 266.099 408.108 266.269 408.069L266.288 411.021C266.002 411.112 265.624 411.197 265.154 411.275C264.698 411.367 264.144 411.412 263.493 411.412C262.606 411.412 261.792 411.236 261.049 410.884C260.306 410.532 259.713 409.946 259.269 409.125C258.839 408.291 258.624 407.17 258.624 405.762V384.725ZM274.363 389.867V411.021H270.727V389.867H274.363ZM270.453 384.256C270.453 383.669 270.629 383.174 270.981 382.77C271.346 382.366 271.88 382.164 272.584 382.164C273.275 382.164 273.803 382.366 274.168 382.77C274.546 383.174 274.735 383.669 274.735 384.256C274.735 384.816 274.546 385.298 274.168 385.702C273.803 386.093 273.275 386.289 272.584 386.289C271.88 386.289 271.346 386.093 270.981 385.702C270.629 385.298 270.453 384.816 270.453 384.256ZM285.566 411.021H281.949V387.638C281.949 386.113 282.223 384.829 282.77 383.786C283.331 382.731 284.132 381.935 285.175 381.401C286.218 380.854 287.456 380.58 288.89 380.58C289.307 380.58 289.724 380.606 290.141 380.658C290.571 380.71 290.988 380.788 291.392 380.893L291.197 383.845C290.923 383.78 290.61 383.734 290.258 383.708C289.919 383.682 289.58 383.669 289.242 383.669C288.473 383.669 287.808 383.825 287.247 384.138C286.7 384.438 286.283 384.881 285.996 385.468C285.709 386.054 285.566 386.778 285.566 387.638V411.021ZM290.063 389.867V392.643H278.606V389.867H290.063ZM300.034 408.831L305.919 389.867H309.79L301.305 414.286C301.109 414.808 300.849 415.368 300.523 415.968C300.21 416.58 299.806 417.16 299.311 417.708C298.815 418.255 298.216 418.698 297.512 419.037C296.821 419.389 295.993 419.565 295.029 419.565C294.742 419.565 294.377 419.526 293.934 419.448C293.491 419.37 293.178 419.304 292.995 419.252L292.976 416.32C293.08 416.333 293.243 416.346 293.465 416.359C293.699 416.385 293.862 416.398 293.953 416.398C294.775 416.398 295.472 416.287 296.045 416.065C296.619 415.857 297.101 415.498 297.492 414.99C297.896 414.495 298.242 413.811 298.528 412.937L300.034 408.831ZM295.713 389.867L301.207 406.29L302.145 410.102L299.545 411.432L291.764 389.867H295.713Z" fill="white"/>
<circle cx="250.1" cy="200.08" r="152.5" fill="#222222"/>
<path opacity="0.3" d="M295.85 123.83H330.972C332.63 123.83 333.975 125.175 333.975 126.833V273.327C333.975 274.985 332.63 276.33 330.972 276.33H295.85V123.83Z" fill="white"/>
<path fill-rule="evenodd" clip-rule="evenodd" d="M189.1 124.831C189.1 124.278 189.548 123.83 190.101 123.83H308.097C309.755 123.83 311.1 125.175 311.1 126.833V273.327C311.1 274.985 309.755 276.33 308.097 276.33H190.101C189.548 276.33 189.1 275.882 189.1 275.329V124.831ZM250.1 192.455C241.678 192.455 234.85 185.627 234.85 177.205C234.85 168.783 241.678 161.955 250.1 161.955C258.522 161.955 265.35 168.783 265.35 177.205C265.35 185.627 258.522 192.455 250.1 192.455ZM250.029 200.08C230.029 200.08 213.62 211.644 211.978 234.389C211.888 235.628 213.994 238.205 215.057 238.205H285.034C288.216 238.205 288.266 235.324 288.216 234.392C286.975 211.008 270.311 200.08 250.029 200.08Z" fill="white"/>
</svg>
