<svg width="488" height="488" viewBox="0 0 488 488" fill="none" xmlns="http://www.w3.org/2000/svg">
<rect x="1" y="1" width="486" height="486" stroke="#4B4B4B" stroke-width="2"/>
<path d="M198.954 407.952V411.021H183.88V407.952H198.954ZM184.642 382.555V411.021H180.869V382.555H184.642ZM196.96 394.794V397.863H183.88V394.794H196.96ZM198.758 382.555V385.644H183.88V382.555H198.758ZM206.696 394.383V411.021H203.079V389.867H206.501L206.696 394.383ZM205.836 399.642L204.33 399.584C204.343 398.137 204.558 396.801 204.976 395.576C205.393 394.337 205.979 393.262 206.735 392.35C207.491 391.437 208.391 390.734 209.433 390.238C210.489 389.73 211.656 389.476 212.933 389.476C213.976 389.476 214.914 389.619 215.748 389.906C216.583 390.18 217.293 390.623 217.879 391.235C218.479 391.848 218.935 392.643 219.248 393.621C219.561 394.585 219.717 395.765 219.717 397.159V411.021H216.081V397.12C216.081 396.012 215.918 395.126 215.592 394.461C215.266 393.784 214.79 393.295 214.165 392.995C213.539 392.682 212.77 392.526 211.858 392.526C210.958 392.526 210.137 392.715 209.394 393.093C208.664 393.471 208.032 393.992 207.498 394.657C206.976 395.322 206.566 396.084 206.266 396.944C205.979 397.792 205.836 398.691 205.836 399.642ZM238.917 389.867H242.201V410.572C242.201 412.435 241.823 414.026 241.067 415.342C240.311 416.659 239.255 417.656 237.9 418.333C236.557 419.024 235.006 419.37 233.247 419.37C232.517 419.37 231.657 419.252 230.666 419.018C229.688 418.796 228.724 418.412 227.772 417.864C226.834 417.33 226.045 416.606 225.407 415.694L227.303 413.543C228.189 414.612 229.115 415.355 230.079 415.772C231.057 416.189 232.022 416.398 232.973 416.398C234.12 416.398 235.111 416.183 235.945 415.753C236.779 415.323 237.424 414.684 237.88 413.837C238.35 413.002 238.584 411.973 238.584 410.748V394.52L238.917 389.867ZM224.351 400.679V400.268C224.351 398.652 224.54 397.185 224.918 395.869C225.309 394.539 225.863 393.399 226.58 392.448C227.31 391.496 228.189 390.766 229.219 390.258C230.249 389.736 231.409 389.476 232.699 389.476C234.029 389.476 235.189 389.71 236.179 390.18C237.183 390.636 238.03 391.307 238.721 392.193C239.425 393.067 239.979 394.122 240.383 395.361C240.787 396.599 241.067 398 241.224 399.564V401.363C241.08 402.914 240.8 404.309 240.383 405.547C239.979 406.785 239.425 407.841 238.721 408.714C238.03 409.587 237.183 410.259 236.179 410.728C235.176 411.184 234.003 411.412 232.66 411.412C231.396 411.412 230.249 411.145 229.219 410.611C228.203 410.076 227.329 409.327 226.599 408.362C225.869 407.398 225.309 406.264 224.918 404.96C224.54 403.644 224.351 402.217 224.351 400.679ZM227.968 400.268V400.679C227.968 401.734 228.072 402.725 228.281 403.65C228.502 404.576 228.835 405.39 229.278 406.094C229.734 406.798 230.314 407.352 231.018 407.756C231.722 408.147 232.562 408.343 233.54 408.343C234.739 408.343 235.73 408.089 236.512 407.58C237.294 407.072 237.913 406.401 238.369 405.566C238.838 404.732 239.203 403.826 239.464 402.849V398.137C239.321 397.42 239.099 396.729 238.799 396.064C238.513 395.387 238.135 394.787 237.665 394.266C237.209 393.731 236.642 393.308 235.964 392.995C235.287 392.682 234.491 392.526 233.579 392.526C232.589 392.526 231.735 392.734 231.018 393.151C230.314 393.555 229.734 394.116 229.278 394.833C228.835 395.537 228.502 396.358 228.281 397.296C228.072 398.222 227.968 399.212 227.968 400.268ZM260.169 407.404V396.514C260.169 395.68 259.999 394.957 259.661 394.344C259.335 393.718 258.839 393.236 258.175 392.897C257.51 392.558 256.689 392.389 255.711 392.389C254.799 392.389 253.997 392.545 253.306 392.858C252.629 393.171 252.094 393.581 251.703 394.09C251.325 394.598 251.136 395.146 251.136 395.732H247.519C247.519 394.976 247.715 394.227 248.106 393.484C248.497 392.741 249.057 392.07 249.787 391.47C250.53 390.857 251.416 390.375 252.446 390.023C253.489 389.658 254.649 389.476 255.926 389.476C257.464 389.476 258.82 389.736 259.993 390.258C261.179 390.779 262.104 391.568 262.769 392.623C263.447 393.666 263.786 394.976 263.786 396.553V406.407C263.786 407.111 263.844 407.86 263.962 408.656C264.092 409.451 264.281 410.135 264.529 410.708V411.021H260.755C260.573 410.604 260.43 410.05 260.325 409.359C260.221 408.656 260.169 408.004 260.169 407.404ZM260.794 398.196L260.834 400.737H257.178C256.148 400.737 255.229 400.822 254.421 400.991C253.613 401.148 252.935 401.389 252.387 401.715C251.84 402.041 251.423 402.451 251.136 402.947C250.849 403.429 250.706 403.996 250.706 404.648C250.706 405.312 250.856 405.918 251.156 406.466C251.455 407.013 251.905 407.45 252.505 407.776C253.117 408.089 253.867 408.245 254.753 408.245C255.861 408.245 256.839 408.01 257.686 407.541C258.533 407.072 259.204 406.498 259.7 405.821C260.208 405.143 260.482 404.485 260.521 403.846L262.065 405.586C261.974 406.133 261.726 406.739 261.322 407.404C260.918 408.069 260.377 408.708 259.7 409.32C259.035 409.92 258.24 410.422 257.314 410.826C256.402 411.217 255.372 411.412 254.225 411.412C252.791 411.412 251.534 411.132 250.452 410.572C249.383 410.011 248.549 409.262 247.949 408.323C247.363 407.372 247.069 406.309 247.069 405.136C247.069 404.002 247.291 403.005 247.734 402.145C248.177 401.272 248.816 400.548 249.65 399.975C250.484 399.388 251.488 398.945 252.661 398.645C253.834 398.345 255.144 398.196 256.591 398.196H260.794ZM283.181 389.867H286.465V410.572C286.465 412.435 286.087 414.026 285.331 415.342C284.575 416.659 283.52 417.656 282.164 418.333C280.822 419.024 279.27 419.37 277.511 419.37C276.781 419.37 275.921 419.252 274.93 419.018C273.953 418.796 272.988 418.412 272.036 417.864C271.098 417.33 270.309 416.606 269.671 415.694L271.567 413.543C272.454 414.612 273.379 415.355 274.344 415.772C275.321 416.189 276.286 416.398 277.237 416.398C278.384 416.398 279.375 416.183 280.209 415.753C281.043 415.323 281.688 414.684 282.144 413.837C282.614 413.002 282.848 411.973 282.848 410.748V394.52L283.181 389.867ZM268.615 400.679V400.268C268.615 398.652 268.804 397.185 269.182 395.869C269.573 394.539 270.127 393.399 270.844 392.448C271.574 391.496 272.454 390.766 273.483 390.258C274.513 389.736 275.673 389.476 276.963 389.476C278.293 389.476 279.453 389.71 280.444 390.18C281.447 390.636 282.294 391.307 282.985 392.193C283.689 393.067 284.243 394.122 284.647 395.361C285.051 396.599 285.331 398 285.488 399.564V401.363C285.344 402.914 285.064 404.309 284.647 405.547C284.243 406.785 283.689 407.841 282.985 408.714C282.294 409.587 281.447 410.259 280.444 410.728C279.44 411.184 278.267 411.412 276.924 411.412C275.66 411.412 274.513 411.145 273.483 410.611C272.467 410.076 271.593 409.327 270.863 408.362C270.133 407.398 269.573 406.264 269.182 404.96C268.804 403.644 268.615 402.217 268.615 400.679ZM272.232 400.268V400.679C272.232 401.734 272.336 402.725 272.545 403.65C272.766 404.576 273.099 405.39 273.542 406.094C273.998 406.798 274.578 407.352 275.282 407.756C275.986 408.147 276.827 408.343 277.804 408.343C279.003 408.343 279.994 408.089 280.776 407.58C281.558 407.072 282.177 406.401 282.633 405.566C283.103 404.732 283.467 403.826 283.728 402.849V398.137C283.585 397.42 283.363 396.729 283.063 396.064C282.777 395.387 282.399 394.787 281.929 394.266C281.473 393.731 280.906 393.308 280.228 392.995C279.551 392.682 278.756 392.526 277.843 392.526C276.853 392.526 275.999 392.734 275.282 393.151C274.578 393.555 273.998 394.116 273.542 394.833C273.099 395.537 272.766 396.358 272.545 397.296C272.336 398.222 272.232 399.212 272.232 400.268ZM300.738 411.412C299.265 411.412 297.929 411.165 296.73 410.669C295.544 410.161 294.52 409.451 293.66 408.538C292.813 407.626 292.161 406.544 291.705 405.293C291.249 404.041 291.021 402.673 291.021 401.187V400.366C291.021 398.645 291.275 397.114 291.783 395.771C292.292 394.416 292.982 393.269 293.856 392.33C294.729 391.392 295.72 390.681 296.828 390.199C297.935 389.717 299.082 389.476 300.269 389.476C301.78 389.476 303.084 389.736 304.179 390.258C305.287 390.779 306.193 391.509 306.896 392.448C307.6 393.373 308.122 394.468 308.461 395.732C308.799 396.983 308.969 398.352 308.969 399.838V401.461H293.171V398.508H305.352V398.235C305.3 397.296 305.104 396.384 304.765 395.498C304.439 394.611 303.918 393.881 303.201 393.308C302.484 392.734 301.507 392.448 300.269 392.448C299.447 392.448 298.691 392.623 298.001 392.975C297.31 393.314 296.717 393.823 296.221 394.5C295.726 395.178 295.342 396.006 295.068 396.983C294.794 397.961 294.657 399.088 294.657 400.366V401.187C294.657 402.191 294.794 403.136 295.068 404.022C295.355 404.895 295.765 405.664 296.3 406.329C296.847 406.994 297.505 407.515 298.274 407.893C299.056 408.271 299.943 408.46 300.933 408.46C302.211 408.46 303.292 408.199 304.179 407.678C305.065 407.157 305.841 406.459 306.505 405.586L308.695 407.326C308.239 408.017 307.659 408.675 306.955 409.301C306.251 409.926 305.384 410.435 304.355 410.826C303.338 411.217 302.132 411.412 300.738 411.412Z" fill="white"/>
<circle cx="250.1" cy="200.08" r="152.5" fill="#222222"/>
<path fill-rule="evenodd" clip-rule="evenodd" d="M333.306 252.596C333.622 252.912 334.163 252.687 334.161 252.241L334.005 208.508V150.718C334.005 140.079 325.381 131.455 314.742 131.455H224.847C214.208 131.455 205.584 140.079 205.584 150.718V177.205H277.597C279.255 177.205 280.6 178.55 280.6 180.208V227.771H308.481L333.306 252.596Z" fill="white"/>
<path opacity="0.3" fill-rule="evenodd" clip-rule="evenodd" d="M173.736 245.83V207.705C173.736 199.283 180.564 192.455 188.986 192.455H249.986C258.408 192.455 265.236 199.283 265.236 207.705V245.83C265.236 254.252 258.408 261.08 249.986 261.08H189.869L174.782 275.52C174.464 275.824 173.936 275.599 173.936 275.158V248.302C173.804 247.498 173.736 246.672 173.736 245.83ZM204.35 215.83C204.35 215.554 204.574 215.33 204.851 215.33H249.6C249.876 215.33 250.1 215.554 250.1 215.83V222.454C250.1 222.731 249.876 222.955 249.6 222.955H204.851C204.574 222.955 204.35 222.731 204.35 222.454V215.83ZM227.726 230.58C227.449 230.58 227.225 230.804 227.225 231.08V237.704C227.225 237.981 227.449 238.205 227.726 238.205H249.6C249.876 238.205 250.1 237.981 250.1 237.704V231.08C250.1 230.804 249.876 230.58 249.6 230.58H227.726Z" fill="white"/>
</svg>
