<svg width="488" height="488" viewBox="0 0 488 488" fill="none" xmlns="http://www.w3.org/2000/svg">
<rect x="1" y="1" width="486" height="486" stroke="#4B4B4B" stroke-width="2"/>
<path d="M211.467 403.826C211.467 403.162 211.362 402.575 211.154 402.067C210.958 401.545 210.606 401.076 210.098 400.659C209.603 400.242 208.912 399.844 208.026 399.466C207.152 399.088 206.044 398.704 204.702 398.313C203.294 397.896 202.023 397.433 200.889 396.925C199.755 396.403 198.784 395.81 197.976 395.146C197.168 394.481 196.549 393.718 196.119 392.858C195.689 391.998 195.474 391.014 195.474 389.906C195.474 388.798 195.702 387.775 196.158 386.836C196.614 385.898 197.266 385.083 198.113 384.392C198.973 383.689 199.997 383.141 201.183 382.75C202.369 382.359 203.692 382.164 205.152 382.164C207.289 382.164 209.101 382.574 210.587 383.395C212.086 384.203 213.226 385.266 214.008 386.582C214.79 387.886 215.181 389.28 215.181 390.766H211.428C211.428 389.697 211.199 388.752 210.743 387.931C210.287 387.097 209.596 386.445 208.671 385.976C207.745 385.494 206.572 385.253 205.152 385.253C203.809 385.253 202.701 385.455 201.828 385.859C200.955 386.263 200.303 386.81 199.873 387.501C199.456 388.192 199.247 388.98 199.247 389.867C199.247 390.466 199.371 391.014 199.619 391.509C199.879 391.991 200.277 392.441 200.811 392.858C201.359 393.275 202.049 393.66 202.884 394.012C203.731 394.364 204.741 394.702 205.914 395.028C207.53 395.484 208.925 395.993 210.098 396.553C211.271 397.114 212.236 397.746 212.992 398.45C213.761 399.141 214.328 399.929 214.693 400.815C215.071 401.689 215.26 402.679 215.26 403.787C215.26 404.947 215.025 405.997 214.556 406.935C214.086 407.873 213.415 408.675 212.542 409.34C211.669 410.005 210.619 410.519 209.394 410.884C208.182 411.236 206.826 411.412 205.328 411.412C204.011 411.412 202.714 411.23 201.437 410.865C200.172 410.5 199.019 409.952 197.976 409.223C196.947 408.493 196.119 407.593 195.493 406.524C194.881 405.443 194.574 404.191 194.574 402.771H198.328C198.328 403.748 198.517 404.589 198.895 405.293C199.273 405.984 199.788 406.557 200.44 407.013C201.104 407.469 201.854 407.808 202.688 408.03C203.535 408.238 204.415 408.343 205.328 408.343C206.644 408.343 207.758 408.16 208.671 407.795C209.583 407.43 210.274 406.909 210.743 406.231C211.225 405.553 211.467 404.752 211.467 403.826ZM223.139 380.99V411.021H219.522V380.99H223.139ZM222.278 399.642L220.773 399.584C220.786 398.137 221.001 396.801 221.418 395.576C221.835 394.337 222.422 393.262 223.178 392.35C223.934 391.437 224.833 390.734 225.876 390.238C226.932 389.73 228.098 389.476 229.376 389.476C230.418 389.476 231.357 389.619 232.191 389.906C233.025 390.18 233.736 390.623 234.322 391.235C234.922 391.848 235.378 392.643 235.691 393.621C236.003 394.585 236.16 395.765 236.16 397.159V411.021H232.523V397.12C232.523 396.012 232.36 395.126 232.035 394.461C231.709 393.784 231.233 393.295 230.607 392.995C229.982 392.682 229.213 392.526 228.3 392.526C227.401 392.526 226.58 392.715 225.837 393.093C225.107 393.471 224.475 393.992 223.94 394.657C223.419 395.322 223.008 396.084 222.709 396.944C222.422 397.792 222.278 398.691 222.278 399.642ZM254.049 407.404V396.514C254.049 395.68 253.88 394.957 253.541 394.344C253.215 393.718 252.72 393.236 252.055 392.897C251.39 392.558 250.569 392.389 249.592 392.389C248.679 392.389 247.878 392.545 247.187 392.858C246.509 393.171 245.975 393.581 245.584 394.09C245.206 394.598 245.017 395.146 245.017 395.732H241.4C241.4 394.976 241.595 394.227 241.986 393.484C242.377 392.741 242.938 392.07 243.668 391.47C244.411 390.857 245.297 390.375 246.327 390.023C247.369 389.658 248.529 389.476 249.807 389.476C251.345 389.476 252.7 389.736 253.873 390.258C255.059 390.779 255.985 391.568 256.65 392.623C257.327 393.666 257.666 394.976 257.666 396.553V406.407C257.666 407.111 257.725 407.86 257.842 408.656C257.973 409.451 258.162 410.135 258.409 410.708V411.021H254.636C254.453 410.604 254.31 410.05 254.206 409.359C254.101 408.656 254.049 408.004 254.049 407.404ZM254.675 398.196L254.714 400.737H251.058C250.028 400.737 249.109 400.822 248.301 400.991C247.493 401.148 246.815 401.389 246.268 401.715C245.72 402.041 245.303 402.451 245.017 402.947C244.73 403.429 244.586 403.996 244.586 404.648C244.586 405.312 244.736 405.918 245.036 406.466C245.336 407.013 245.786 407.45 246.385 407.776C246.998 408.089 247.747 408.245 248.634 408.245C249.741 408.245 250.719 408.01 251.566 407.541C252.414 407.072 253.085 406.498 253.58 405.821C254.088 405.143 254.362 404.485 254.401 403.846L255.946 405.586C255.855 406.133 255.607 406.739 255.203 407.404C254.799 408.069 254.258 408.708 253.58 409.32C252.915 409.92 252.12 410.422 251.195 410.826C250.282 411.217 249.253 411.412 248.106 411.412C246.672 411.412 245.414 411.132 244.332 410.572C243.264 410.011 242.429 409.262 241.83 408.323C241.243 407.372 240.95 406.309 240.95 405.136C240.95 404.002 241.172 403.005 241.615 402.145C242.058 401.272 242.697 400.548 243.531 399.975C244.365 399.388 245.369 398.945 246.542 398.645C247.715 398.345 249.025 398.196 250.471 398.196H254.675ZM266.973 393.19V411.021H263.356V389.867H266.875L266.973 393.19ZM273.581 389.749L273.561 393.112C273.262 393.047 272.975 393.008 272.701 392.995C272.441 392.969 272.141 392.956 271.802 392.956C270.968 392.956 270.231 393.086 269.593 393.347C268.954 393.608 268.413 393.973 267.97 394.442C267.527 394.911 267.175 395.471 266.914 396.123C266.666 396.762 266.503 397.466 266.425 398.235L265.409 398.821C265.409 397.544 265.532 396.345 265.78 395.224C266.041 394.103 266.438 393.112 266.973 392.252C267.507 391.379 268.185 390.701 269.006 390.219C269.84 389.723 270.831 389.476 271.978 389.476C272.239 389.476 272.538 389.508 272.877 389.573C273.216 389.626 273.451 389.684 273.581 389.749ZM285.312 411.412C283.839 411.412 282.503 411.165 281.304 410.669C280.118 410.161 279.094 409.451 278.234 408.538C277.387 407.626 276.735 406.544 276.279 405.293C275.823 404.041 275.595 402.673 275.595 401.187V400.366C275.595 398.645 275.849 397.114 276.357 395.771C276.866 394.416 277.556 393.269 278.43 392.33C279.303 391.392 280.294 390.681 281.402 390.199C282.509 389.717 283.656 389.476 284.843 389.476C286.355 389.476 287.658 389.736 288.753 390.258C289.861 390.779 290.767 391.509 291.47 392.448C292.174 393.373 292.696 394.468 293.035 395.732C293.373 396.983 293.543 398.352 293.543 399.838V401.461H277.745V398.508H289.926V398.235C289.874 397.296 289.678 396.384 289.339 395.498C289.014 394.611 288.492 393.881 287.775 393.308C287.058 392.734 286.081 392.448 284.843 392.448C284.021 392.448 283.265 392.623 282.575 392.975C281.884 393.314 281.291 393.823 280.795 394.5C280.3 395.178 279.916 396.006 279.642 396.983C279.368 397.961 279.231 399.088 279.231 400.366V401.187C279.231 402.191 279.368 403.136 279.642 404.022C279.929 404.895 280.339 405.664 280.874 406.329C281.421 406.994 282.079 407.515 282.848 407.893C283.63 408.271 284.517 408.46 285.507 408.46C286.785 408.46 287.866 408.199 288.753 407.678C289.639 407.157 290.415 406.459 291.079 405.586L293.269 407.326C292.813 408.017 292.233 408.675 291.529 409.301C290.825 409.926 289.958 410.435 288.929 410.826C287.912 411.217 286.706 411.412 285.312 411.412Z" fill="white"/>
<circle cx="250.1" cy="200.08" r="152.5" fill="#222222"/>
<path opacity="0.3" d="M241.713 123.83C245.924 123.83 249.338 127.244 249.338 131.455C249.338 135.666 245.924 139.08 241.713 139.08H204.35C195.928 139.08 189.1 145.908 189.1 154.33V245.83C189.1 254.252 195.928 261.08 204.35 261.08H295.85C304.272 261.08 311.1 254.252 311.1 245.83V230.58C311.1 226.369 314.514 222.955 318.725 222.955C322.936 222.955 326.35 226.369 326.35 230.58V245.83C326.35 262.675 312.695 276.33 295.85 276.33H204.35C187.505 276.33 173.85 262.675 173.85 245.83V154.33C173.85 137.485 187.505 123.83 204.35 123.83H241.713Z" fill="#595959"/>
<path d="M212.01 214.547C212.01 208.731 210.764 185.78 228.869 167.571C241.054 155.317 259.29 153.191 281.099 152.222V111.379C281.099 110.728 281.872 110.385 282.355 110.823L344.3 167.021C344.626 167.317 344.628 167.829 344.305 168.128L282.36 225.495C281.88 225.941 281.099 225.6 281.099 224.945V184.125C267.252 184.506 257.389 185.387 248.428 188.238C229.431 194.281 218.906 222.118 217.464 226.171C217.356 226.475 217.075 226.663 216.752 226.663H212.726C212.312 226.663 211.975 226.328 211.976 225.913C211.98 222.416 212.01 217.416 212.01 214.547Z" fill="white"/>
</svg>
