<svg width="488" height="488" viewBox="0 0 488 488" fill="none" xmlns="http://www.w3.org/2000/svg">
<rect x="1" y="1" width="486" height="486" fill="#2B2B2B"/>
<rect x="1" y="1" width="486" height="486" stroke="#4B4B4B" stroke-width="2"/>
<path d="M125.714 150.233L141.18 115.197H150.94L166.456 150.233H156.145L144.033 120.052H147.937L135.824 150.233H125.714ZM134.173 143.426L136.725 136.118H153.843L156.395 143.426H134.173ZM174.963 150.233V123.055H164.202V115.197H195.584V123.055H184.873V150.233H174.963ZM207.223 150.233V123.055H196.462V115.197H227.844V123.055H217.133V150.233H207.223ZM231.536 150.233V115.197H247.552C250.756 115.197 253.508 115.714 255.811 116.748C258.147 117.783 259.948 119.284 261.216 121.253C262.484 123.188 263.118 125.491 263.118 128.16C263.118 130.796 262.484 133.082 261.216 135.017C259.948 136.919 258.147 138.387 255.811 139.421C253.508 140.422 250.756 140.923 247.552 140.923H237.042L241.446 136.769V150.233H231.536ZM253.208 150.233L244.499 137.469H255.06L263.819 150.233H253.208ZM241.446 137.82L237.042 133.265H246.952C249.021 133.265 250.555 132.815 251.556 131.914C252.591 131.013 253.108 129.762 253.108 128.16C253.108 126.525 252.591 125.257 251.556 124.356C250.555 123.455 249.021 123.005 246.952 123.005H237.042L241.446 118.45V137.82ZM264.381 150.233L279.847 115.197H289.607L305.123 150.233H294.813L282.7 120.052H286.604L274.492 150.233H264.381ZM272.84 143.426L275.393 136.118H292.51L295.063 143.426H272.84ZM324.912 150.933C322.142 150.933 319.573 150.499 317.204 149.632C314.868 148.731 312.833 147.463 311.098 145.828C309.396 144.193 308.061 142.274 307.093 140.072C306.126 137.837 305.642 135.384 305.642 132.715C305.642 130.045 306.126 127.609 307.093 125.407C308.061 123.171 309.396 121.236 311.098 119.601C312.833 117.966 314.868 116.715 317.204 115.847C319.573 114.946 322.142 114.496 324.912 114.496C328.148 114.496 331.035 115.063 333.571 116.198C336.14 117.332 338.275 118.967 339.977 121.103L333.671 126.809C332.536 125.474 331.285 124.456 329.917 123.755C328.582 123.055 327.081 122.704 325.412 122.704C323.977 122.704 322.659 122.938 321.458 123.405C320.257 123.872 319.223 124.556 318.355 125.457C317.521 126.325 316.853 127.376 316.353 128.61C315.886 129.845 315.652 131.213 315.652 132.715C315.652 134.216 315.886 135.584 316.353 136.819C316.853 138.053 317.521 139.121 318.355 140.022C319.223 140.89 320.257 141.557 321.458 142.024C322.659 142.491 323.977 142.725 325.412 142.725C327.081 142.725 328.582 142.374 329.917 141.674C331.285 140.973 332.536 139.955 333.671 138.621L339.977 144.326C338.275 146.429 336.14 148.064 333.571 149.232C331.035 150.366 328.148 150.933 324.912 150.933ZM351.56 150.233V123.055H340.799V115.197H372.181V123.055H361.47V150.233H351.56Z" fill="white"/>
<path d="M273.982 269.599C276.167 271.658 279.723 271.671 281.926 269.629C284.128 267.587 284.142 264.263 281.957 262.205L248.391 230.581C246.273 228.586 242.849 228.504 240.624 230.395L206.799 259.142C204.504 261.092 204.335 264.413 206.423 266.558C208.51 268.703 212.062 268.86 214.357 266.91L244.203 241.544L273.982 269.599Z" fill="black"/>
<path opacity="0.3" d="M273.825 306.347C276.009 308.405 279.566 308.419 281.768 306.377C283.97 304.335 283.985 301.011 281.8 298.953L248.233 267.329C246.115 265.334 242.691 265.251 240.467 267.142L206.642 295.889C204.347 297.84 204.178 301.16 206.265 303.305C208.352 305.45 211.905 305.608 214.2 303.657L244.046 278.292L273.825 306.347Z" fill="white"/>
<path d="M200.107 369.252V373.827H184.955V369.252H200.107ZM186.871 345.36V373.827H181.006V345.36H186.871ZM198.133 356.954V361.412H184.955V356.954H198.133ZM200.088 345.36V349.955H184.955V345.36H200.088ZM209.121 343.796V373.827H203.47V343.796H209.121ZM223.51 374.218C221.868 374.218 220.395 373.957 219.092 373.436C217.788 372.901 216.68 372.165 215.768 371.227C214.869 370.288 214.178 369.2 213.696 367.961C213.213 366.71 212.972 365.381 212.972 363.973V363.191C212.972 361.588 213.2 360.121 213.656 358.792C214.113 357.462 214.764 356.309 215.612 355.331C216.472 354.354 217.515 353.604 218.74 353.083C219.965 352.549 221.347 352.281 222.885 352.281C224.384 352.281 225.713 352.529 226.873 353.024C228.033 353.52 229.004 354.223 229.786 355.136C230.581 356.048 231.181 357.143 231.585 358.42C231.989 359.685 232.191 361.092 232.191 362.644V364.99H215.377V361.236H226.658V360.806C226.658 360.024 226.515 359.326 226.228 358.714C225.954 358.088 225.537 357.593 224.977 357.228C224.416 356.863 223.699 356.68 222.826 356.68C222.083 356.68 221.444 356.843 220.91 357.169C220.376 357.495 219.939 357.951 219.6 358.538C219.274 359.124 219.026 359.815 218.857 360.61C218.701 361.392 218.622 362.253 218.622 363.191V363.973C218.622 364.82 218.74 365.602 218.974 366.319C219.222 367.036 219.567 367.655 220.011 368.177C220.467 368.698 221.014 369.102 221.653 369.389C222.305 369.675 223.041 369.819 223.862 369.819C224.879 369.819 225.824 369.623 226.697 369.232C227.583 368.828 228.346 368.222 228.985 367.414L231.722 370.386C231.279 371.025 230.673 371.637 229.904 372.224C229.148 372.81 228.235 373.292 227.166 373.67C226.098 374.035 224.879 374.218 223.51 374.218ZM242.319 369.721L247.011 352.672H252.896L245.76 373.827H242.201L242.319 369.721ZM239.093 352.672L243.804 369.741L243.902 373.827H240.324L233.188 352.672H239.093ZM266.523 369.056V359.633C266.523 358.955 266.412 358.375 266.191 357.893C265.969 357.397 265.624 357.013 265.154 356.739C264.698 356.465 264.105 356.328 263.375 356.328C262.75 356.328 262.209 356.439 261.753 356.661C261.296 356.869 260.944 357.176 260.697 357.58C260.449 357.971 260.325 358.433 260.325 358.968H254.695C254.695 358.069 254.903 357.215 255.32 356.407C255.737 355.599 256.343 354.888 257.138 354.276C257.934 353.65 258.879 353.161 259.973 352.809C261.081 352.457 262.32 352.281 263.688 352.281C265.33 352.281 266.79 352.555 268.068 353.103C269.345 353.65 270.349 354.471 271.079 355.566C271.821 356.661 272.193 358.029 272.193 359.672V368.724C272.193 369.884 272.265 370.836 272.408 371.578C272.551 372.308 272.76 372.947 273.034 373.494V373.827H267.344C267.071 373.253 266.862 372.536 266.719 371.676C266.588 370.803 266.523 369.93 266.523 369.056ZM267.266 360.943L267.305 364.129H264.157C263.414 364.129 262.769 364.214 262.222 364.384C261.674 364.553 261.225 364.794 260.873 365.107C260.521 365.407 260.26 365.759 260.091 366.163C259.934 366.567 259.856 367.01 259.856 367.492C259.856 367.975 259.967 368.411 260.188 368.802C260.41 369.18 260.729 369.48 261.146 369.702C261.564 369.91 262.052 370.014 262.613 370.014C263.46 370.014 264.196 369.845 264.822 369.506C265.448 369.167 265.93 368.75 266.269 368.255C266.621 367.759 266.803 367.29 266.816 366.847L268.302 369.232C268.094 369.767 267.807 370.321 267.442 370.894C267.09 371.468 266.64 372.009 266.093 372.517C265.546 373.012 264.887 373.423 264.118 373.749C263.349 374.061 262.437 374.218 261.381 374.218C260.039 374.218 258.82 373.951 257.725 373.416C256.643 372.869 255.783 372.119 255.144 371.168C254.519 370.203 254.206 369.108 254.206 367.883C254.206 366.775 254.414 365.791 254.831 364.931C255.249 364.071 255.861 363.347 256.669 362.761C257.49 362.161 258.514 361.712 259.739 361.412C260.964 361.099 262.385 360.943 264.001 360.943H267.266ZM286.896 352.672V356.661H274.578V352.672H286.896ZM277.628 347.452H283.259V367.453C283.259 368.066 283.337 368.535 283.494 368.861C283.663 369.187 283.911 369.415 284.237 369.545C284.562 369.662 284.973 369.721 285.468 369.721C285.82 369.721 286.133 369.708 286.407 369.682C286.693 369.643 286.935 369.604 287.13 369.565L287.15 373.71C286.667 373.866 286.146 373.99 285.586 374.081C285.025 374.172 284.406 374.218 283.728 374.218C282.49 374.218 281.408 374.016 280.483 373.612C279.57 373.195 278.866 372.53 278.371 371.618C277.876 370.705 277.628 369.506 277.628 368.02V347.452ZM299.838 374.218C298.196 374.218 296.723 373.957 295.42 373.436C294.116 372.901 293.009 372.165 292.096 371.227C291.197 370.288 290.506 369.2 290.024 367.961C289.541 366.71 289.3 365.381 289.3 363.973V363.191C289.3 361.588 289.528 360.121 289.985 358.792C290.441 357.462 291.093 356.309 291.94 355.331C292.8 354.354 293.843 353.604 295.068 353.083C296.293 352.549 297.675 352.281 299.213 352.281C300.712 352.281 302.041 352.529 303.201 353.024C304.361 353.52 305.332 354.223 306.114 355.136C306.91 356.048 307.509 357.143 307.913 358.42C308.317 359.685 308.519 361.092 308.519 362.644V364.99H291.705V361.236H302.986V360.806C302.986 360.024 302.843 359.326 302.556 358.714C302.282 358.088 301.865 357.593 301.305 357.228C300.744 356.863 300.027 356.68 299.154 356.68C298.411 356.68 297.773 356.843 297.238 357.169C296.704 357.495 296.267 357.951 295.928 358.538C295.602 359.124 295.355 359.815 295.185 360.61C295.029 361.392 294.951 362.253 294.951 363.191V363.973C294.951 364.82 295.068 365.602 295.303 366.319C295.55 367.036 295.896 367.655 296.339 368.177C296.795 368.698 297.342 369.102 297.981 369.389C298.633 369.675 299.369 369.819 300.19 369.819C301.207 369.819 302.152 369.623 303.025 369.232C303.912 368.828 304.674 368.222 305.313 367.414L308.05 370.386C307.607 371.025 307.001 371.637 306.232 372.224C305.476 372.81 304.563 373.292 303.495 373.67C302.426 374.035 301.207 374.218 299.838 374.218ZM190.527 406.423H201.144C203.32 406.423 205.191 406.749 206.755 407.4C208.332 408.052 209.544 409.017 210.391 410.294C211.239 411.571 211.662 413.142 211.662 415.006C211.662 416.531 211.401 417.841 210.88 418.936C210.372 420.017 209.648 420.923 208.71 421.653C207.785 422.37 206.696 422.944 205.445 423.374L203.588 424.351H194.359L194.32 419.776H201.183C202.212 419.776 203.066 419.594 203.744 419.229C204.422 418.864 204.93 418.356 205.269 417.704C205.621 417.052 205.797 416.296 205.797 415.436C205.797 414.524 205.627 413.735 205.288 413.07C204.95 412.405 204.435 411.897 203.744 411.545C203.053 411.193 202.186 411.017 201.144 411.017H196.393V434.889H190.527V406.423ZM206.442 434.889L199.951 422.201L206.149 422.162L212.718 434.616V434.889H206.442ZM225.563 435.28C223.921 435.28 222.448 435.02 221.145 434.498C219.841 433.964 218.733 433.228 217.821 432.289C216.921 431.351 216.231 430.262 215.748 429.024C215.266 427.773 215.025 426.443 215.025 425.036V424.254C215.025 422.65 215.253 421.184 215.709 419.854C216.165 418.525 216.817 417.371 217.664 416.394C218.525 415.416 219.567 414.667 220.793 414.146C222.018 413.611 223.399 413.344 224.938 413.344C226.436 413.344 227.766 413.592 228.926 414.087C230.086 414.582 231.057 415.286 231.839 416.198C232.634 417.111 233.234 418.206 233.638 419.483C234.042 420.747 234.244 422.155 234.244 423.706V426.052H217.43V422.298H228.711V421.868C228.711 421.086 228.568 420.389 228.281 419.776C228.007 419.151 227.59 418.655 227.029 418.29C226.469 417.925 225.752 417.743 224.879 417.743C224.136 417.743 223.497 417.906 222.963 418.232C222.428 418.558 221.992 419.014 221.653 419.6C221.327 420.187 221.079 420.878 220.91 421.673C220.754 422.455 220.675 423.315 220.675 424.254V425.036C220.675 425.883 220.793 426.665 221.027 427.382C221.275 428.099 221.62 428.718 222.063 429.239C222.52 429.76 223.067 430.165 223.706 430.451C224.357 430.738 225.094 430.881 225.915 430.881C226.932 430.881 227.877 430.686 228.75 430.295C229.636 429.891 230.399 429.285 231.038 428.477L233.775 431.448C233.332 432.087 232.725 432.7 231.956 433.286C231.2 433.873 230.288 434.355 229.219 434.733C228.15 435.098 226.932 435.28 225.563 435.28ZM248.868 430.119V420.695C248.868 420.017 248.757 419.437 248.536 418.955C248.314 418.46 247.969 418.075 247.5 417.802C247.043 417.528 246.45 417.391 245.721 417.391C245.095 417.391 244.554 417.502 244.098 417.723C243.642 417.932 243.29 418.238 243.042 418.642C242.794 419.033 242.671 419.496 242.671 420.03H237.04C237.04 419.131 237.248 418.277 237.665 417.469C238.082 416.661 238.689 415.951 239.484 415.338C240.279 414.713 241.224 414.224 242.319 413.872C243.426 413.52 244.665 413.344 246.033 413.344C247.676 413.344 249.135 413.618 250.413 414.165C251.69 414.713 252.694 415.534 253.424 416.629C254.167 417.723 254.538 419.092 254.538 420.734V429.787C254.538 430.947 254.61 431.898 254.753 432.641C254.897 433.371 255.105 434.01 255.379 434.557V434.889H249.689C249.416 434.316 249.207 433.599 249.064 432.739C248.933 431.865 248.868 430.992 248.868 430.119ZM249.611 422.005L249.65 425.192H246.503C245.76 425.192 245.114 425.277 244.567 425.446C244.02 425.616 243.57 425.857 243.218 426.17C242.866 426.469 242.605 426.821 242.436 427.225C242.279 427.629 242.201 428.073 242.201 428.555C242.201 429.037 242.312 429.474 242.534 429.865C242.755 430.243 243.075 430.543 243.492 430.764C243.909 430.973 244.398 431.077 244.958 431.077C245.805 431.077 246.542 430.907 247.167 430.569C247.793 430.23 248.275 429.813 248.614 429.317C248.966 428.822 249.149 428.353 249.162 427.91L250.647 430.295C250.439 430.829 250.152 431.383 249.787 431.957C249.435 432.53 248.986 433.071 248.438 433.579C247.891 434.075 247.232 434.485 246.463 434.811C245.694 435.124 244.782 435.28 243.726 435.28C242.384 435.28 241.165 435.013 240.07 434.479C238.988 433.931 238.128 433.182 237.489 432.23C236.864 431.266 236.551 430.171 236.551 428.946C236.551 427.838 236.76 426.854 237.177 425.994C237.594 425.133 238.206 424.41 239.014 423.823C239.836 423.224 240.859 422.774 242.084 422.474C243.309 422.162 244.73 422.005 246.346 422.005H249.611ZM267.618 430.881C268.309 430.881 268.921 430.751 269.456 430.49C269.99 430.217 270.407 429.839 270.707 429.356C271.02 428.861 271.183 428.281 271.196 427.616H276.494C276.481 429.102 276.084 430.425 275.302 431.585C274.52 432.732 273.47 433.638 272.154 434.303C270.837 434.955 269.365 435.28 267.735 435.28C266.093 435.28 264.659 435.007 263.434 434.459C262.222 433.912 261.212 433.156 260.404 432.191C259.595 431.214 258.989 430.08 258.585 428.789C258.181 427.486 257.979 426.091 257.979 424.605V424.038C257.979 422.54 258.181 421.145 258.585 419.854C258.989 418.551 259.595 417.417 260.404 416.453C261.212 415.475 262.222 414.713 263.434 414.165C264.646 413.618 266.067 413.344 267.696 413.344C269.43 413.344 270.948 413.676 272.252 414.341C273.568 415.006 274.598 415.957 275.341 417.196C276.097 418.421 276.481 419.874 276.494 421.555H271.196C271.183 420.852 271.033 420.213 270.746 419.639C270.472 419.066 270.068 418.61 269.534 418.271C269.013 417.919 268.367 417.743 267.598 417.743C266.777 417.743 266.106 417.919 265.585 418.271C265.063 418.61 264.659 419.079 264.372 419.679C264.086 420.265 263.884 420.936 263.766 421.692C263.662 422.435 263.61 423.217 263.61 424.038V424.605C263.61 425.427 263.662 426.215 263.766 426.971C263.871 427.727 264.066 428.398 264.353 428.985C264.653 429.571 265.063 430.034 265.585 430.373C266.106 430.712 266.784 430.881 267.618 430.881ZM285.253 404.859V434.889H279.622V404.859H285.253ZM284.452 423.569H282.907C282.92 422.096 283.116 420.741 283.494 419.503C283.872 418.251 284.413 417.169 285.116 416.257C285.82 415.332 286.661 414.615 287.638 414.106C288.629 413.598 289.724 413.344 290.923 413.344C291.966 413.344 292.911 413.494 293.758 413.794C294.618 414.08 295.355 414.55 295.967 415.201C296.593 415.84 297.075 416.681 297.414 417.723C297.753 418.766 297.922 420.03 297.922 421.516V434.889H292.253V421.477C292.253 420.539 292.116 419.802 291.842 419.268C291.581 418.721 291.197 418.336 290.688 418.114C290.193 417.88 289.581 417.763 288.851 417.763C288.043 417.763 287.352 417.912 286.778 418.212C286.218 418.512 285.768 418.929 285.429 419.463C285.09 419.985 284.843 420.597 284.686 421.301C284.53 422.005 284.452 422.761 284.452 423.569Z" fill="white"/>
</svg>
