<svg width="488" height="488" viewBox="0 0 488 488" fill="none" xmlns="http://www.w3.org/2000/svg">
<rect x="1" y="1" width="486" height="486" fill="#2B2B2B"/>
<rect x="1" y="1" width="486" height="486" stroke="#4B4B4B" stroke-width="2"/>
<path d="M141.203 150.933C138.433 150.933 135.864 150.499 133.495 149.632C131.159 148.731 129.124 147.463 127.389 145.828C125.687 144.193 124.352 142.274 123.385 140.072C122.417 137.837 121.933 135.384 121.933 132.715C121.933 130.045 122.417 127.609 123.385 125.407C124.352 123.171 125.687 121.236 127.389 119.601C129.124 117.966 131.159 116.715 133.495 115.847C135.864 114.946 138.433 114.496 141.203 114.496C144.44 114.496 147.326 115.063 149.862 116.198C152.431 117.332 154.567 118.967 156.268 121.103L149.962 126.809C148.827 125.474 147.576 124.456 146.208 123.755C144.873 123.055 143.372 122.704 141.704 122.704C140.269 122.704 138.951 122.938 137.749 123.405C136.548 123.872 135.514 124.556 134.646 125.457C133.812 126.325 133.145 127.376 132.644 128.61C132.177 129.845 131.944 131.213 131.944 132.715C131.944 134.216 132.177 135.584 132.644 136.819C133.145 138.053 133.812 139.121 134.646 140.022C135.514 140.89 136.548 141.557 137.749 142.024C138.951 142.491 140.269 142.725 141.704 142.725C143.372 142.725 144.873 142.374 146.208 141.674C147.576 140.973 148.827 139.955 149.962 138.621L156.268 144.326C154.567 146.429 152.431 148.064 149.862 149.232C147.326 150.366 144.44 150.933 141.203 150.933ZM177.622 150.933C174.819 150.933 172.233 150.483 169.864 149.582C167.495 148.681 165.426 147.413 163.658 145.778C161.923 144.11 160.571 142.174 159.603 139.972C158.636 137.77 158.152 135.351 158.152 132.715C158.152 130.079 158.636 127.659 159.603 125.457C160.571 123.255 161.923 121.336 163.658 119.701C165.426 118.033 167.495 116.748 169.864 115.847C172.233 114.946 174.819 114.496 177.622 114.496C180.458 114.496 183.044 114.946 185.38 115.847C187.749 116.748 189.801 118.033 191.536 119.701C193.271 121.336 194.623 123.255 195.59 125.457C196.591 127.659 197.092 130.079 197.092 132.715C197.092 135.351 196.591 137.786 195.59 140.022C194.623 142.224 193.271 144.143 191.536 145.778C189.801 147.413 187.749 148.681 185.38 149.582C183.044 150.483 180.458 150.933 177.622 150.933ZM177.622 142.725C178.957 142.725 180.191 142.491 181.326 142.024C182.494 141.557 183.495 140.89 184.329 140.022C185.196 139.121 185.864 138.053 186.331 136.819C186.831 135.584 187.082 134.216 187.082 132.715C187.082 131.18 186.831 129.812 186.331 128.61C185.864 127.376 185.196 126.325 184.329 125.457C183.495 124.556 182.494 123.872 181.326 123.405C180.191 122.938 178.957 122.704 177.622 122.704C176.287 122.704 175.036 122.938 173.868 123.405C172.734 123.872 171.733 124.556 170.865 125.457C170.031 126.325 169.363 127.376 168.863 128.61C168.396 129.812 168.162 131.18 168.162 132.715C168.162 134.216 168.396 135.584 168.863 136.819C169.363 138.053 170.031 139.121 170.865 140.022C171.733 140.89 172.734 141.557 173.868 142.024C175.036 142.491 176.287 142.725 177.622 142.725ZM202.282 150.233V115.197H210.441L229.761 138.521H225.907V115.197H235.617V150.233H227.458L208.138 126.909H211.992V150.233H202.282ZM253.27 150.233L238.305 115.197H249.016L261.629 145.528H255.322L268.235 115.197H278.046L263.03 150.233H253.27ZM289.206 128.761H305.472V136.168H289.206V128.761ZM289.907 142.575H308.225V150.233H280.096V115.197H307.575V122.854H289.907V142.575ZM313.725 150.233V115.197H329.741C332.944 115.197 335.697 115.714 338 116.748C340.335 117.783 342.137 119.284 343.405 121.253C344.673 123.188 345.307 125.491 345.307 128.16C345.307 130.796 344.673 133.082 343.405 135.017C342.137 136.919 340.335 138.387 338 139.421C335.697 140.422 332.944 140.923 329.741 140.923H319.23L323.635 136.769V150.233H313.725ZM335.397 150.233L326.688 137.469H337.249L346.008 150.233H335.397ZM323.635 137.82L319.23 133.265H329.14C331.209 133.265 332.744 132.815 333.745 131.914C334.78 131.013 335.297 129.762 335.297 128.16C335.297 126.525 334.78 125.257 333.745 124.356C332.744 123.455 331.209 123.005 329.14 123.005H319.23L323.635 118.45V137.82ZM357.743 150.233V123.055H346.982V115.197H378.364V123.055H367.653V150.233H357.743Z" fill="white"/>
<path opacity="0.3" d="M273.825 306.347C276.009 308.405 279.566 308.419 281.768 306.377C283.97 304.335 283.985 301.011 281.8 298.953L248.233 267.329C246.115 265.334 242.691 265.251 240.467 267.142L206.642 295.889C204.347 297.84 204.178 301.16 206.265 303.305C208.352 305.45 211.905 305.608 214.2 303.657L244.046 278.292L273.825 306.347Z" fill="white"/>
<path d="M195.122 369.252V373.827H179.97V369.252H195.122ZM181.886 345.36V373.827H176.02V345.36H181.886ZM193.147 356.954V361.412H179.97V356.954H193.147ZM195.102 345.36V349.955H179.97V345.36H195.102ZM204.135 343.796V373.827H198.485V343.796H204.135ZM218.525 374.218C216.882 374.218 215.41 373.957 214.106 373.436C212.803 372.901 211.695 372.165 210.782 371.227C209.883 370.288 209.192 369.2 208.71 367.961C208.228 366.71 207.987 365.381 207.987 363.973V363.191C207.987 361.588 208.215 360.121 208.671 358.792C209.127 357.462 209.779 356.309 210.626 355.331C211.486 354.354 212.529 353.604 213.754 353.083C214.979 352.549 216.361 352.281 217.899 352.281C219.398 352.281 220.727 352.529 221.888 353.024C223.048 353.52 224.019 354.223 224.801 355.136C225.596 356.048 226.195 357.143 226.599 358.42C227.003 359.685 227.205 361.092 227.205 362.644V364.99H210.391V361.236H221.672V360.806C221.672 360.024 221.529 359.326 221.242 358.714C220.969 358.088 220.551 357.593 219.991 357.228C219.431 356.863 218.714 356.68 217.84 356.68C217.097 356.68 216.459 356.843 215.924 357.169C215.39 357.495 214.953 357.951 214.614 358.538C214.289 359.124 214.041 359.815 213.871 360.61C213.715 361.392 213.637 362.253 213.637 363.191V363.973C213.637 364.82 213.754 365.602 213.989 366.319C214.236 367.036 214.582 367.655 215.025 368.177C215.481 368.698 216.029 369.102 216.667 369.389C217.319 369.675 218.055 369.819 218.877 369.819C219.893 369.819 220.838 369.623 221.712 369.232C222.598 368.828 223.36 368.222 223.999 367.414L226.736 370.386C226.293 371.025 225.687 371.637 224.918 372.224C224.162 372.81 223.25 373.292 222.181 373.67C221.112 374.035 219.893 374.218 218.525 374.218ZM237.333 369.721L242.025 352.672H247.91L240.774 373.827H237.216L237.333 369.721ZM234.107 352.672L238.819 369.741L238.917 373.827H235.339L228.203 352.672H234.107ZM261.538 369.056V359.633C261.538 358.955 261.427 358.375 261.205 357.893C260.984 357.397 260.638 357.013 260.169 356.739C259.713 356.465 259.12 356.328 258.39 356.328C257.764 356.328 257.223 356.439 256.767 356.661C256.311 356.869 255.959 357.176 255.711 357.58C255.464 357.971 255.34 358.433 255.34 358.968H249.709C249.709 358.069 249.918 357.215 250.335 356.407C250.752 355.599 251.358 354.888 252.153 354.276C252.948 353.65 253.893 353.161 254.988 352.809C256.096 352.457 257.334 352.281 258.703 352.281C260.345 352.281 261.805 352.555 263.082 353.103C264.359 353.65 265.363 354.471 266.093 355.566C266.836 356.661 267.207 358.029 267.207 359.672V368.724C267.207 369.884 267.279 370.836 267.422 371.578C267.566 372.308 267.774 372.947 268.048 373.494V373.827H262.359C262.085 373.253 261.876 372.536 261.733 371.676C261.603 370.803 261.538 369.93 261.538 369.056ZM262.28 360.943L262.32 364.129H259.172C258.429 364.129 257.784 364.214 257.236 364.384C256.689 364.553 256.239 364.794 255.887 365.107C255.535 365.407 255.275 365.759 255.105 366.163C254.949 366.567 254.871 367.01 254.871 367.492C254.871 367.975 254.981 368.411 255.203 368.802C255.424 369.18 255.744 369.48 256.161 369.702C256.578 369.91 257.067 370.014 257.627 370.014C258.474 370.014 259.211 369.845 259.837 369.506C260.462 369.167 260.944 368.75 261.283 368.255C261.635 367.759 261.818 367.29 261.831 366.847L263.317 369.232C263.108 369.767 262.821 370.321 262.456 370.894C262.104 371.468 261.655 372.009 261.107 372.517C260.56 373.012 259.902 373.423 259.133 373.749C258.364 374.061 257.451 374.218 256.396 374.218C255.053 374.218 253.834 373.951 252.739 373.416C251.658 372.869 250.797 372.119 250.159 371.168C249.533 370.203 249.22 369.108 249.22 367.883C249.22 366.775 249.429 365.791 249.846 364.931C250.263 364.071 250.876 363.347 251.684 362.761C252.505 362.161 253.528 361.712 254.753 361.412C255.978 361.099 257.399 360.943 259.015 360.943H262.28ZM281.91 352.672V356.661H269.593V352.672H281.91ZM272.643 347.452H278.273V367.453C278.273 368.066 278.352 368.535 278.508 368.861C278.677 369.187 278.925 369.415 279.251 369.545C279.577 369.662 279.987 369.721 280.483 369.721C280.835 369.721 281.147 369.708 281.421 369.682C281.708 369.643 281.949 369.604 282.145 369.565L282.164 373.71C281.682 373.866 281.16 373.99 280.6 374.081C280.04 374.172 279.42 374.218 278.743 374.218C277.504 374.218 276.423 374.016 275.497 373.612C274.585 373.195 273.881 372.53 273.386 371.618C272.89 370.705 272.643 369.506 272.643 368.02V347.452ZM294.853 374.218C293.211 374.218 291.738 373.957 290.434 373.436C289.131 372.901 288.023 372.165 287.111 371.227C286.211 370.288 285.52 369.2 285.038 367.961C284.556 366.71 284.315 365.381 284.315 363.973V363.191C284.315 361.588 284.543 360.121 284.999 358.792C285.455 357.462 286.107 356.309 286.954 355.331C287.814 354.354 288.857 353.604 290.082 353.083C291.308 352.549 292.689 352.281 294.227 352.281C295.726 352.281 297.056 352.529 298.216 353.024C299.376 353.52 300.347 354.223 301.129 355.136C301.924 356.048 302.524 357.143 302.928 358.42C303.332 359.685 303.534 361.092 303.534 362.644V364.99H286.72V361.236H298.001V360.806C298.001 360.024 297.857 359.326 297.571 358.714C297.297 358.088 296.88 357.593 296.319 357.228C295.759 356.863 295.042 356.68 294.169 356.68C293.426 356.68 292.787 356.843 292.253 357.169C291.718 357.495 291.282 357.951 290.943 358.538C290.617 359.124 290.369 359.815 290.2 360.61C290.043 361.392 289.965 362.253 289.965 363.191V363.973C289.965 364.82 290.082 365.602 290.317 366.319C290.565 367.036 290.91 367.655 291.353 368.177C291.809 368.698 292.357 369.102 292.996 369.389C293.647 369.675 294.384 369.819 295.205 369.819C296.221 369.819 297.166 369.623 298.04 369.232C298.926 368.828 299.689 368.222 300.327 367.414L303.064 370.386C302.621 371.025 302.015 371.637 301.246 372.224C300.49 372.81 299.578 373.292 298.509 373.67C297.44 374.035 296.221 374.218 294.853 374.218ZM211.916 427.44C211.916 426.932 211.838 426.476 211.682 426.072C211.538 425.655 211.265 425.277 210.861 424.938C210.457 424.586 209.89 424.24 209.16 423.902C208.43 423.563 207.485 423.211 206.325 422.846C205.034 422.429 203.809 421.96 202.649 421.438C201.502 420.917 200.485 420.311 199.599 419.62C198.726 418.916 198.035 418.101 197.527 417.176C197.031 416.251 196.784 415.175 196.784 413.95C196.784 412.764 197.044 411.689 197.566 410.724C198.087 409.746 198.817 408.912 199.755 408.221C200.694 407.518 201.802 406.977 203.079 406.599C204.37 406.221 205.784 406.032 207.322 406.032C209.42 406.032 211.252 406.41 212.816 407.166C214.38 407.922 215.592 408.958 216.452 410.274C217.326 411.591 217.762 413.096 217.762 414.791H211.936C211.936 413.957 211.76 413.227 211.408 412.601C211.069 411.962 210.548 411.46 209.844 411.096C209.153 410.731 208.28 410.548 207.224 410.548C206.207 410.548 205.36 410.704 204.682 411.017C204.005 411.317 203.496 411.728 203.157 412.249C202.818 412.757 202.649 413.331 202.649 413.97C202.649 414.452 202.766 414.888 203.001 415.279C203.249 415.671 203.614 416.035 204.096 416.374C204.578 416.713 205.171 417.033 205.875 417.332C206.579 417.632 207.393 417.925 208.319 418.212C209.87 418.681 211.232 419.209 212.405 419.796C213.591 420.382 214.582 421.041 215.377 421.771C216.172 422.5 216.772 423.328 217.176 424.254C217.58 425.179 217.782 426.228 217.782 427.401C217.782 428.64 217.541 429.747 217.058 430.725C216.576 431.703 215.879 432.53 214.966 433.208C214.054 433.886 212.966 434.401 211.701 434.753C210.437 435.104 209.023 435.28 207.459 435.28C206.051 435.28 204.663 435.098 203.294 434.733C201.926 434.355 200.681 433.788 199.56 433.032C198.452 432.276 197.566 431.312 196.901 430.138C196.236 428.965 195.904 427.577 195.904 425.974H201.789C201.789 426.86 201.926 427.61 202.199 428.222C202.473 428.835 202.858 429.33 203.353 429.708C203.861 430.086 204.461 430.36 205.152 430.529C205.855 430.699 206.624 430.784 207.459 430.784C208.475 430.784 209.31 430.64 209.961 430.354C210.626 430.067 211.115 429.669 211.428 429.161C211.753 428.653 211.916 428.079 211.916 427.44ZM232.836 430.119V420.695C232.836 420.017 232.725 419.437 232.504 418.955C232.282 418.46 231.937 418.075 231.468 417.802C231.011 417.528 230.418 417.391 229.688 417.391C229.063 417.391 228.522 417.502 228.066 417.723C227.61 417.932 227.258 418.238 227.01 418.642C226.762 419.033 226.638 419.496 226.638 420.03H221.008C221.008 419.131 221.216 418.277 221.633 417.469C222.05 416.661 222.657 415.951 223.452 415.338C224.247 414.713 225.192 414.224 226.287 413.872C227.394 413.52 228.633 413.344 230.001 413.344C231.644 413.344 233.103 413.618 234.381 414.165C235.658 414.713 236.662 415.534 237.392 416.629C238.135 417.723 238.506 419.092 238.506 420.734V429.787C238.506 430.947 238.578 431.898 238.721 432.641C238.865 433.371 239.073 434.01 239.347 434.557V434.889H233.657C233.384 434.316 233.175 433.599 233.032 432.739C232.901 431.865 232.836 430.992 232.836 430.119ZM233.579 422.005L233.618 425.192H230.471C229.728 425.192 229.082 425.277 228.535 425.446C227.988 425.616 227.538 425.857 227.186 426.17C226.834 426.469 226.573 426.821 226.404 427.225C226.247 427.629 226.169 428.073 226.169 428.555C226.169 429.037 226.28 429.474 226.502 429.865C226.723 430.243 227.043 430.543 227.46 430.764C227.877 430.973 228.365 431.077 228.926 431.077C229.773 431.077 230.51 430.907 231.135 430.569C231.761 430.23 232.243 429.813 232.582 429.317C232.934 428.822 233.116 428.353 233.129 427.91L234.615 430.295C234.407 430.829 234.12 431.383 233.755 431.957C233.403 432.53 232.954 433.071 232.406 433.579C231.859 434.075 231.2 434.485 230.431 434.811C229.662 435.124 228.75 435.28 227.694 435.28C226.352 435.28 225.133 435.013 224.038 434.479C222.956 433.931 222.096 433.182 221.457 432.23C220.832 431.266 220.519 430.171 220.519 428.946C220.519 427.838 220.727 426.854 221.145 425.994C221.562 425.133 222.174 424.41 222.982 423.823C223.804 423.224 224.827 422.774 226.052 422.474C227.277 422.162 228.698 422.005 230.314 422.005H233.579ZM248.79 404.859V434.889H243.14V404.859H248.79ZM263.18 435.28C261.538 435.28 260.065 435.02 258.761 434.498C257.458 433.964 256.35 433.228 255.438 432.289C254.538 431.351 253.847 430.262 253.365 429.024C252.883 427.773 252.642 426.443 252.642 425.036V424.254C252.642 422.65 252.87 421.184 253.326 419.854C253.782 418.525 254.434 417.371 255.281 416.394C256.141 415.416 257.184 414.667 258.409 414.146C259.635 413.611 261.016 413.344 262.554 413.344C264.053 413.344 265.383 413.592 266.543 414.087C267.703 414.582 268.674 415.286 269.456 416.198C270.251 417.111 270.85 418.206 271.254 419.483C271.659 420.747 271.861 422.155 271.861 423.706V426.052H255.046V422.298H266.328V421.868C266.328 421.086 266.184 420.389 265.897 419.776C265.624 419.151 265.207 418.655 264.646 418.29C264.086 417.925 263.369 417.743 262.496 417.743C261.753 417.743 261.114 417.906 260.579 418.232C260.045 418.558 259.608 419.014 259.27 419.6C258.944 420.187 258.696 420.878 258.527 421.673C258.37 422.455 258.292 423.315 258.292 424.254V425.036C258.292 425.883 258.409 426.665 258.644 427.382C258.892 428.099 259.237 428.718 259.68 429.239C260.136 429.76 260.684 430.165 261.322 430.451C261.974 430.738 262.711 430.881 263.532 430.881C264.548 430.881 265.493 430.686 266.367 430.295C267.253 429.891 268.015 429.285 268.654 428.477L271.391 431.448C270.948 432.087 270.342 432.7 269.573 433.286C268.817 433.873 267.905 434.355 266.836 434.733C265.767 435.098 264.548 435.28 263.18 435.28ZM286.504 429.044C286.504 428.64 286.387 428.275 286.153 427.949C285.918 427.623 285.481 427.323 284.843 427.049C284.217 426.763 283.311 426.502 282.125 426.267C281.056 426.033 280.059 425.739 279.134 425.388C278.221 425.023 277.426 424.586 276.748 424.078C276.084 423.569 275.562 422.97 275.184 422.279C274.806 421.575 274.617 420.773 274.617 419.874C274.617 418.988 274.806 418.154 275.184 417.371C275.575 416.589 276.129 415.899 276.846 415.299C277.576 414.686 278.462 414.211 279.505 413.872C280.561 413.52 281.747 413.344 283.063 413.344C284.901 413.344 286.478 413.637 287.795 414.224C289.124 414.81 290.141 415.618 290.845 416.648C291.562 417.665 291.92 418.825 291.92 420.128H286.289C286.289 419.581 286.172 419.092 285.938 418.662C285.716 418.219 285.364 417.873 284.882 417.626C284.413 417.365 283.8 417.235 283.044 417.235C282.418 417.235 281.877 417.345 281.421 417.567C280.965 417.776 280.613 418.062 280.365 418.427C280.131 418.779 280.013 419.17 280.013 419.6C280.013 419.926 280.079 420.219 280.209 420.48C280.352 420.728 280.58 420.956 280.893 421.164C281.206 421.373 281.61 421.568 282.105 421.751C282.614 421.92 283.239 422.077 283.982 422.22C285.507 422.533 286.869 422.944 288.069 423.452C289.268 423.947 290.219 424.625 290.923 425.485C291.627 426.332 291.979 427.447 291.979 428.829C291.979 429.767 291.77 430.627 291.353 431.409C290.936 432.191 290.337 432.876 289.554 433.462C288.772 434.036 287.834 434.485 286.739 434.811C285.657 435.124 284.439 435.28 283.083 435.28C281.115 435.28 279.446 434.929 278.078 434.225C276.722 433.521 275.693 432.628 274.989 431.546C274.298 430.451 273.953 429.33 273.953 428.183H279.29C279.316 428.952 279.512 429.571 279.877 430.041C280.255 430.51 280.73 430.849 281.304 431.057C281.89 431.266 282.523 431.37 283.2 431.37C283.93 431.37 284.536 431.272 285.019 431.077C285.501 430.868 285.866 430.595 286.113 430.256C286.374 429.904 286.504 429.5 286.504 429.044Z" fill="white"/>
</svg>
