<svg width="488" height="488" viewBox="0 0 488 488" fill="none" xmlns="http://www.w3.org/2000/svg">
<rect x="1" y="1" width="486" height="486" fill="#2B2B2B"/>
<rect x="1" y="1" width="486" height="486" stroke="#4B4B4B" stroke-width="2"/>
<path d="M182.433 150.933C179.663 150.933 177.094 150.499 174.725 149.632C172.356 148.731 170.304 147.463 168.569 145.828C166.867 144.193 165.532 142.274 164.565 140.072C163.597 137.837 163.113 135.384 163.113 132.715C163.113 130.045 163.597 127.609 164.565 125.407C165.532 123.171 166.884 121.236 168.619 119.601C170.354 117.966 172.406 116.715 174.775 115.847C177.178 114.946 179.797 114.496 182.633 114.496C185.937 114.496 188.89 115.046 191.492 116.148C194.095 117.249 196.247 118.834 197.949 120.902L191.642 126.608C190.441 125.307 189.14 124.339 187.738 123.705C186.37 123.038 184.835 122.704 183.134 122.704C181.632 122.704 180.264 122.938 179.029 123.405C177.795 123.872 176.744 124.556 175.876 125.457C175.009 126.325 174.325 127.376 173.824 128.61C173.357 129.812 173.123 131.18 173.123 132.715C173.123 134.183 173.357 135.534 173.824 136.769C174.325 138.003 175.009 139.071 175.876 139.972C176.744 140.84 177.778 141.524 178.979 142.024C180.214 142.491 181.565 142.725 183.034 142.725C184.502 142.725 185.937 142.491 187.338 142.024C188.739 141.524 190.158 140.689 191.592 139.522L197.148 146.479C195.146 147.913 192.827 149.015 190.191 149.782C187.555 150.55 184.969 150.933 182.433 150.933ZM188.389 145.177V131.964H197.148V146.479L188.389 145.177ZM203.431 150.233V115.197H219.447C222.651 115.197 225.404 115.714 227.706 116.748C230.042 117.783 231.843 119.284 233.111 121.253C234.379 123.188 235.013 125.491 235.013 128.16C235.013 130.796 234.379 133.082 233.111 135.017C231.843 136.919 230.042 138.387 227.706 139.421C225.404 140.422 222.651 140.923 219.447 140.923H208.937L213.341 136.769V150.233H203.431ZM225.103 150.233L216.394 137.469H226.955L235.714 150.233H225.103ZM213.341 137.82L208.937 133.265H218.847C220.916 133.265 222.451 132.815 223.452 131.914C224.486 131.013 225.003 129.762 225.003 128.16C225.003 126.525 224.486 125.257 223.452 124.356C222.451 123.455 220.916 123.005 218.847 123.005H208.937L213.341 118.45V137.82ZM258.149 150.933C255.346 150.933 252.76 150.483 250.391 149.582C248.022 148.681 245.953 147.413 244.184 145.778C242.449 144.11 241.098 142.174 240.13 139.972C239.163 137.77 238.679 135.351 238.679 132.715C238.679 130.079 239.163 127.659 240.13 125.457C241.098 123.255 242.449 121.336 244.184 119.701C245.953 118.033 248.022 116.748 250.391 115.847C252.76 114.946 255.346 114.496 258.149 114.496C260.985 114.496 263.571 114.946 265.907 115.847C268.276 116.748 270.328 118.033 272.063 119.701C273.798 121.336 275.15 123.255 276.117 125.457C277.118 127.659 277.619 130.079 277.619 132.715C277.619 135.351 277.118 137.786 276.117 140.022C275.15 142.224 273.798 144.143 272.063 145.778C270.328 147.413 268.276 148.681 265.907 149.582C263.571 150.483 260.985 150.933 258.149 150.933ZM258.149 142.725C259.483 142.725 260.718 142.491 261.853 142.024C263.02 141.557 264.021 140.89 264.856 140.022C265.723 139.121 266.391 138.053 266.858 136.819C267.358 135.584 267.608 134.216 267.608 132.715C267.608 131.18 267.358 129.812 266.858 128.61C266.391 127.376 265.723 126.325 264.856 125.457C264.021 124.556 263.02 123.872 261.853 123.405C260.718 122.938 259.483 122.704 258.149 122.704C256.814 122.704 255.563 122.938 254.395 123.405C253.26 123.872 252.259 124.556 251.392 125.457C250.558 126.325 249.89 127.376 249.39 128.61C248.923 129.812 248.689 131.18 248.689 132.715C248.689 134.216 248.923 135.584 249.39 136.819C249.89 138.053 250.558 139.121 251.392 140.022C252.259 140.89 253.26 141.557 254.395 142.024C255.563 142.491 256.814 142.725 258.149 142.725ZM290.295 150.233L278.933 115.197H289.144L298.704 145.528H293.548L303.609 115.197H312.718L322.228 145.528H317.273L327.133 115.197H336.592L325.231 150.233H314.62L306.512 124.456H309.365L300.906 150.233H290.295Z" fill="white"/>
<path d="M273.982 269.599C276.167 271.658 279.723 271.671 281.926 269.629C284.128 267.587 284.142 264.263 281.957 262.205L248.391 230.581C246.273 228.586 242.849 228.504 240.624 230.395L206.799 259.142C204.504 261.092 204.335 264.413 206.423 266.558C208.51 268.703 212.062 268.86 214.357 266.91L244.203 241.544L273.982 269.599Z" fill="black"/>
<path opacity="0.3" d="M273.825 306.347C276.009 308.405 279.566 308.419 281.768 306.377C283.97 304.335 283.985 301.011 281.8 298.953L248.233 267.329C246.115 265.334 242.691 265.251 240.467 267.142L206.642 295.889C204.347 297.84 204.178 301.16 206.265 303.305C208.352 305.45 211.905 305.608 214.2 303.657L244.046 278.292L273.825 306.347Z" fill="white"/>
<path d="M195.122 369.252V373.827H179.97V369.252H195.122ZM181.886 345.36V373.827H176.02V345.36H181.886ZM193.147 356.954V361.412H179.97V356.954H193.147ZM195.102 345.36V349.955H179.97V345.36H195.102ZM204.135 343.796V373.827H198.485V343.796H204.135ZM218.525 374.218C216.882 374.218 215.41 373.957 214.106 373.436C212.803 372.901 211.695 372.165 210.782 371.227C209.883 370.288 209.192 369.2 208.71 367.961C208.228 366.71 207.987 365.381 207.987 363.973V363.191C207.987 361.588 208.215 360.121 208.671 358.792C209.127 357.462 209.779 356.309 210.626 355.331C211.486 354.354 212.529 353.604 213.754 353.083C214.979 352.549 216.361 352.281 217.899 352.281C219.398 352.281 220.727 352.529 221.888 353.024C223.048 353.52 224.019 354.223 224.801 355.136C225.596 356.048 226.195 357.143 226.599 358.42C227.003 359.685 227.205 361.092 227.205 362.644V364.99H210.391V361.236H221.672V360.806C221.672 360.024 221.529 359.326 221.242 358.714C220.969 358.088 220.551 357.593 219.991 357.228C219.431 356.863 218.714 356.68 217.84 356.68C217.097 356.68 216.459 356.843 215.924 357.169C215.39 357.495 214.953 357.951 214.614 358.538C214.289 359.124 214.041 359.815 213.871 360.61C213.715 361.392 213.637 362.253 213.637 363.191V363.973C213.637 364.82 213.754 365.602 213.989 366.319C214.236 367.036 214.582 367.655 215.025 368.177C215.481 368.698 216.029 369.102 216.667 369.389C217.319 369.675 218.055 369.819 218.877 369.819C219.893 369.819 220.838 369.623 221.712 369.232C222.598 368.828 223.36 368.222 223.999 367.414L226.736 370.386C226.293 371.025 225.687 371.637 224.918 372.224C224.162 372.81 223.25 373.292 222.181 373.67C221.112 374.035 219.893 374.218 218.525 374.218ZM237.333 369.721L242.025 352.672H247.91L240.774 373.827H237.216L237.333 369.721ZM234.107 352.672L238.819 369.741L238.917 373.827H235.339L228.203 352.672H234.107ZM261.538 369.056V359.633C261.538 358.955 261.427 358.375 261.205 357.893C260.984 357.397 260.638 357.013 260.169 356.739C259.713 356.465 259.12 356.328 258.39 356.328C257.764 356.328 257.223 356.439 256.767 356.661C256.311 356.869 255.959 357.176 255.711 357.58C255.464 357.971 255.34 358.433 255.34 358.968H249.709C249.709 358.069 249.918 357.215 250.335 356.407C250.752 355.599 251.358 354.888 252.153 354.276C252.948 353.65 253.893 353.161 254.988 352.809C256.096 352.457 257.334 352.281 258.703 352.281C260.345 352.281 261.805 352.555 263.082 353.103C264.359 353.65 265.363 354.471 266.093 355.566C266.836 356.661 267.207 358.029 267.207 359.672V368.724C267.207 369.884 267.279 370.836 267.422 371.578C267.566 372.308 267.774 372.947 268.048 373.494V373.827H262.359C262.085 373.253 261.876 372.536 261.733 371.676C261.603 370.803 261.538 369.93 261.538 369.056ZM262.28 360.943L262.32 364.129H259.172C258.429 364.129 257.784 364.214 257.236 364.384C256.689 364.553 256.239 364.794 255.887 365.107C255.535 365.407 255.275 365.759 255.105 366.163C254.949 366.567 254.871 367.01 254.871 367.492C254.871 367.975 254.981 368.411 255.203 368.802C255.424 369.18 255.744 369.48 256.161 369.702C256.578 369.91 257.067 370.014 257.627 370.014C258.474 370.014 259.211 369.845 259.837 369.506C260.462 369.167 260.944 368.75 261.283 368.255C261.635 367.759 261.818 367.29 261.831 366.847L263.317 369.232C263.108 369.767 262.821 370.321 262.456 370.894C262.104 371.468 261.655 372.009 261.107 372.517C260.56 373.012 259.902 373.423 259.133 373.749C258.364 374.061 257.451 374.218 256.396 374.218C255.053 374.218 253.834 373.951 252.739 373.416C251.658 372.869 250.797 372.119 250.159 371.168C249.533 370.203 249.22 369.108 249.22 367.883C249.22 366.775 249.429 365.791 249.846 364.931C250.263 364.071 250.876 363.347 251.684 362.761C252.505 362.161 253.528 361.712 254.753 361.412C255.978 361.099 257.399 360.943 259.015 360.943H262.28ZM281.91 352.672V356.661H269.593V352.672H281.91ZM272.643 347.452H278.273V367.453C278.273 368.066 278.352 368.535 278.508 368.861C278.677 369.187 278.925 369.415 279.251 369.545C279.577 369.662 279.987 369.721 280.483 369.721C280.835 369.721 281.147 369.708 281.421 369.682C281.708 369.643 281.949 369.604 282.145 369.565L282.164 373.71C281.682 373.866 281.16 373.99 280.6 374.081C280.04 374.172 279.42 374.218 278.743 374.218C277.504 374.218 276.423 374.016 275.497 373.612C274.585 373.195 273.881 372.53 273.386 371.618C272.89 370.705 272.643 369.506 272.643 368.02V347.452ZM294.853 374.218C293.211 374.218 291.738 373.957 290.434 373.436C289.131 372.901 288.023 372.165 287.111 371.227C286.211 370.288 285.52 369.2 285.038 367.961C284.556 366.71 284.315 365.381 284.315 363.973V363.191C284.315 361.588 284.543 360.121 284.999 358.792C285.455 357.462 286.107 356.309 286.954 355.331C287.814 354.354 288.857 353.604 290.082 353.083C291.308 352.549 292.689 352.281 294.227 352.281C295.726 352.281 297.056 352.529 298.216 353.024C299.376 353.52 300.347 354.223 301.129 355.136C301.924 356.048 302.524 357.143 302.928 358.42C303.332 359.685 303.534 361.092 303.534 362.644V364.99H286.72V361.236H298.001V360.806C298.001 360.024 297.857 359.326 297.571 358.714C297.297 358.088 296.88 357.593 296.319 357.228C295.759 356.863 295.042 356.68 294.169 356.68C293.426 356.68 292.787 356.843 292.253 357.169C291.718 357.495 291.282 357.951 290.943 358.538C290.617 359.124 290.369 359.815 290.2 360.61C290.043 361.392 289.965 362.253 289.965 363.191V363.973C289.965 364.82 290.082 365.602 290.317 366.319C290.565 367.036 290.91 367.655 291.353 368.177C291.809 368.698 292.357 369.102 292.996 369.389C293.647 369.675 294.384 369.819 295.205 369.819C296.221 369.819 297.166 369.623 298.04 369.232C298.926 368.828 299.689 368.222 300.327 367.414L303.064 370.386C302.621 371.025 302.015 371.637 301.246 372.224C300.49 372.81 299.578 373.292 298.509 373.67C297.44 374.035 296.221 374.218 294.853 374.218ZM206.129 428.946L212.835 406.423H219.365L209.453 434.889H205.152L206.129 428.946ZM199.951 406.423L206.638 428.946L207.654 434.889H203.314L193.46 406.423H199.951ZM232.191 430.119V420.695C232.191 420.017 232.08 419.437 231.859 418.955C231.637 418.46 231.292 418.075 230.822 417.802C230.366 417.528 229.773 417.391 229.043 417.391C228.418 417.391 227.877 417.502 227.421 417.723C226.964 417.932 226.612 418.238 226.365 418.642C226.117 419.033 225.993 419.496 225.993 420.03H220.363C220.363 419.131 220.571 418.277 220.988 417.469C221.405 416.661 222.011 415.951 222.806 415.338C223.601 414.713 224.546 414.224 225.641 413.872C226.749 413.52 227.988 413.344 229.356 413.344C230.998 413.344 232.458 413.618 233.736 414.165C235.013 414.713 236.017 415.534 236.746 416.629C237.489 417.723 237.861 419.092 237.861 420.734V429.787C237.861 430.947 237.933 431.898 238.076 432.641C238.219 433.371 238.428 434.01 238.702 434.557V434.889H233.012C232.738 434.316 232.53 433.599 232.387 432.739C232.256 431.865 232.191 430.992 232.191 430.119ZM232.934 422.005L232.973 425.192H229.825C229.082 425.192 228.437 425.277 227.89 425.446C227.342 425.616 226.893 425.857 226.541 426.17C226.189 426.469 225.928 426.821 225.759 427.225C225.602 427.629 225.524 428.073 225.524 428.555C225.524 429.037 225.635 429.474 225.856 429.865C226.078 430.243 226.397 430.543 226.814 430.764C227.232 430.973 227.72 431.077 228.281 431.077C229.128 431.077 229.864 430.907 230.49 430.569C231.116 430.23 231.598 429.813 231.937 429.317C232.289 428.822 232.471 428.353 232.484 427.91L233.97 430.295C233.762 430.829 233.475 431.383 233.11 431.957C232.758 432.53 232.308 433.071 231.761 433.579C231.213 434.075 230.555 434.485 229.786 434.811C229.017 435.124 228.105 435.28 227.049 435.28C225.707 435.28 224.488 435.013 223.393 434.479C222.311 433.931 221.451 433.182 220.812 432.23C220.187 431.266 219.874 430.171 219.874 428.946C219.874 427.838 220.082 426.854 220.499 425.994C220.916 425.133 221.529 424.41 222.337 423.823C223.158 423.224 224.182 422.774 225.407 422.474C226.632 422.162 228.053 422.005 229.669 422.005H232.934ZM248.145 404.859V434.889H242.495V404.859H248.145ZM265.311 429.826V413.735H270.942V434.889H265.643L265.311 429.826ZM265.937 425.485L267.598 425.446C267.598 426.854 267.435 428.164 267.11 429.376C266.784 430.575 266.295 431.618 265.643 432.504C264.992 433.377 264.17 434.062 263.18 434.557C262.189 435.039 261.023 435.28 259.68 435.28C258.65 435.28 257.699 435.137 256.826 434.85C255.965 434.551 255.222 434.088 254.597 433.462C253.984 432.824 253.502 432.009 253.15 431.018C252.811 430.015 252.642 428.809 252.642 427.401V413.735H258.272V427.44C258.272 428.066 258.344 428.594 258.488 429.024C258.644 429.454 258.859 429.806 259.133 430.08C259.406 430.354 259.726 430.549 260.091 430.666C260.469 430.784 260.886 430.842 261.342 430.842C262.502 430.842 263.414 430.608 264.079 430.138C264.757 429.669 265.233 429.031 265.506 428.222C265.793 427.401 265.937 426.489 265.937 425.485ZM284.979 435.28C283.337 435.28 281.864 435.02 280.561 434.498C279.257 433.964 278.15 433.228 277.237 432.289C276.338 431.351 275.647 430.262 275.165 429.024C274.682 427.773 274.441 426.443 274.441 425.036V424.254C274.441 422.65 274.669 421.184 275.126 419.854C275.582 418.525 276.234 417.371 277.081 416.394C277.941 415.416 278.984 414.667 280.209 414.146C281.434 413.611 282.816 413.344 284.354 413.344C285.853 413.344 287.182 413.592 288.342 414.087C289.502 414.582 290.473 415.286 291.255 416.198C292.051 417.111 292.65 418.206 293.054 419.483C293.458 420.747 293.66 422.155 293.66 423.706V426.052H276.846V422.298H288.127V421.868C288.127 421.086 287.984 420.389 287.697 419.776C287.423 419.151 287.006 418.655 286.446 418.29C285.885 417.925 285.168 417.743 284.295 417.743C283.552 417.743 282.914 417.906 282.379 418.232C281.845 418.558 281.408 419.014 281.069 419.6C280.743 420.187 280.496 420.878 280.326 421.673C280.17 422.455 280.092 423.315 280.092 424.254V425.036C280.092 425.883 280.209 426.665 280.444 427.382C280.691 428.099 281.037 428.718 281.48 429.239C281.936 429.76 282.483 430.165 283.122 430.451C283.774 430.738 284.51 430.881 285.331 430.881C286.348 430.881 287.293 430.686 288.166 430.295C289.053 429.891 289.815 429.285 290.454 428.477L293.191 431.448C292.748 432.087 292.142 432.7 291.373 433.286C290.617 433.873 289.704 434.355 288.636 434.733C287.567 435.098 286.348 435.28 284.979 435.28Z" fill="white"/>
</svg>
